<svg xmlns="http://www.w3.org/2000/svg" xmlns:xlink="http://www.w3.org/1999/xlink" width="800" zoomAndPan="magnify" viewBox="0 0 600 187.499995" height="250" preserveAspectRatio="xMidYMid meet" version="1.0"><defs><g/><clipPath id="83559e8483"><path d="M 10 0 L 111.234375 0 L 111.234375 119.863281 L 10 119.863281 Z M 10 0 " clip-rule="nonzero"/></clipPath><clipPath id="cb19bcf5ba"><path d="M 0.796875 32 L 30 32 L 30 61 L 0.796875 61 Z M 0.796875 32 " clip-rule="nonzero"/></clipPath><clipPath id="f67b0204b6"><path d="M 161 165 L 173 165 L 173 187 L 161 187 Z M 161 165 " clip-rule="nonzero"/></clipPath></defs><path fill="#ab5429" d="M 110.125 59.511719 C 110.125 77.984375 95.015625 93.007812 76.4375 93.007812 L 44.679688 93.007812 L 44.679688 78.035156 L 76.4375 78.035156 C 86.703125 78.035156 95.066406 69.71875 95.066406 59.511719 C 95.066406 49.304688 86.703125 40.992188 76.4375 40.992188 L 44.679688 40.992188 L 44.679688 26.015625 L 76.4375 26.015625 C 95.015625 26.015625 110.125 41.039062 110.125 59.511719 Z M 110.125 59.511719 " fill-opacity="1" fill-rule="nonzero"/><g clip-path="url(#83559e8483)"><path fill="#d48a7a" d="M 76.4375 119.820312 L 44.679688 119.820312 C 25.640625 119.820312 10.148438 104.414062 10.148438 85.484375 C 10.148438 66.558594 25.640625 51.148438 44.679688 51.148438 L 76.4375 51.148438 C 76.894531 51.148438 77.28125 51.535156 77.28125 51.988281 L 77.28125 66.964844 C 77.28125 67.417969 76.894531 67.800781 76.4375 67.800781 L 44.679688 67.800781 C 34.871094 67.800781 26.894531 75.734375 26.894531 85.484375 C 26.894531 95.238281 34.871094 103.167969 44.679688 103.167969 L 76.4375 103.167969 C 76.894531 103.167969 77.28125 103.550781 77.28125 104.007812 L 77.28125 118.984375 C 77.28125 119.4375 76.894531 119.820312 76.4375 119.820312 Z M 44.679688 52.828125 C 26.558594 52.828125 11.835938 67.492188 11.835938 85.484375 C 11.835938 103.503906 26.582031 118.144531 44.679688 118.144531 L 75.59375 118.144531 L 75.59375 104.820312 L 44.679688 104.820312 C 33.957031 104.820312 25.207031 96.148438 25.207031 85.460938 C 25.207031 74.800781 33.929688 66.101562 44.679688 66.101562 L 75.59375 66.101562 L 75.59375 52.78125 L 44.679688 52.78125 Z M 95.933594 30.472656 C 87.5 30.472656 80.628906 23.644531 80.628906 15.257812 C 80.628906 6.871094 87.5 0.0429688 95.933594 0.0429688 C 104.367188 0.0429688 111.234375 6.871094 111.234375 15.257812 C 111.234375 23.644531 104.367188 30.472656 95.933594 30.472656 Z M 95.933594 1.671875 C 88.414062 1.671875 82.292969 7.757812 82.292969 15.234375 C 82.292969 22.707031 88.414062 28.792969 95.933594 28.792969 C 103.449219 28.792969 109.570312 22.707031 109.570312 15.234375 C 109.570312 7.757812 103.449219 1.671875 95.933594 1.671875 Z M 95.933594 1.671875 " fill-opacity="1" fill-rule="nonzero"/></g><g clip-path="url(#cb19bcf5ba)"><path fill="#222e3c" d="M 29.738281 46.527344 C 29.738281 54.480469 23.257812 60.925781 15.257812 60.925781 C 7.253906 60.925781 0.796875 54.480469 0.796875 46.527344 C 0.796875 38.570312 7.28125 32.125 15.28125 32.125 C 23.28125 32.125 29.738281 38.570312 29.738281 46.527344 Z M 29.738281 46.527344 " fill-opacity="1" fill-rule="nonzero"/></g><g fill="#2c3d4b" fill-opacity="1"><g transform="translate(90.140903, 138.684883)"><g><path d="M 28.730469 1.078125 C 44.960938 1.078125 56.742188 -10.199219 56.742188 -26.933594 C 56.742188 -43.667969 44.960938 -54.945312 28.730469 -54.945312 C 12.066406 -54.945312 0.71875 -43.238281 0.71875 -26.933594 C 0.71875 -10.199219 12.496094 1.078125 28.730469 1.078125 Z M 22.625 -27.003906 C 22.625 -30.742188 25.066406 -33.183594 28.730469 -33.183594 C 32.390625 -33.183594 34.90625 -30.742188 34.90625 -27.003906 C 34.90625 -23.34375 32.390625 -20.902344 28.730469 -20.902344 C 24.996094 -20.902344 22.625 -23.34375 22.625 -27.003906 Z M 22.625 -27.003906 "/></g></g></g><g fill="#2c3d4b" fill-opacity="1"><g transform="translate(147.597741, 138.684883)"><g><path d="M 1.078125 0 L 22.625 0 L 22.625 -28.15625 C 22.625 -30.597656 22.625 -32.464844 24.777344 -32.464844 L 31.53125 -32.464844 L 31.53125 -53.867188 L 23.128906 -53.867188 C 11.347656 -53.867188 1.078125 -47.402344 1.078125 -33.183594 Z M 1.078125 0 "/></g></g></g><g fill="#2c3d4b" fill-opacity="1"><g transform="translate(180.204486, 138.684883)"><g><path d="M 27.652344 0 L 49.199219 0 L 49.199219 -71.824219 L 27.652344 -71.824219 L 27.652344 -53.867188 C 10.054688 -53.867188 1.078125 -43.597656 1.078125 -26.933594 C 1.078125 -10.054688 13 0 27.652344 0 Z M 27.652344 -33.039062 L 27.652344 -21.332031 C 25.136719 -21.332031 23.128906 -23.988281 23.128906 -27.222656 C 23.128906 -29.808594 24.777344 -33.039062 27.652344 -33.039062 Z M 27.652344 -33.039062 "/></g></g></g><g fill="#2c3d4b" fill-opacity="1"><g transform="translate(230.479211, 138.684883)"><g><path d="M 0.71875 -26.933594 C 0.71875 -10.199219 12.496094 0 28.730469 0 C 44.960938 0 53.292969 0 53.292969 0 L 53.292969 -21.546875 C 53.292969 -21.546875 30.8125 -21.546875 28.730469 -21.546875 C 24.851562 -21.546875 22.335938 -22.550781 22.335938 -24.777344 L 54.371094 -24.777344 C 58.105469 -40.796875 48.910156 -54.945312 28.800781 -54.945312 C 12.136719 -54.945312 0.71875 -43.238281 0.71875 -26.933594 Z M 28.730469 -36.128906 C 31.816406 -36.128906 34.261719 -34.691406 35.480469 -32.320312 L 22.050781 -32.320312 C 23.199219 -34.691406 25.640625 -36.128906 28.730469 -36.128906 Z M 28.730469 -36.128906 "/></g></g></g><g fill="#2c3d4b" fill-opacity="1"><g transform="translate(286.427807, 138.684883)"><g><path d="M 1.078125 0 L 22.625 0 L 22.625 -28.15625 C 22.625 -30.597656 22.625 -32.464844 24.777344 -32.464844 L 31.53125 -32.464844 L 31.53125 -53.867188 L 23.128906 -53.867188 C 11.347656 -53.867188 1.078125 -47.402344 1.078125 -33.183594 Z M 1.078125 0 "/></g></g></g><g fill="#2c3d4b" fill-opacity="1"><g transform="translate(319.034553, 138.684883)"><g><path d="M 1.078125 -71.75 L 1.078125 0 L 19.035156 0 L 19.035156 -50.277344 L 24.203125 0 L 48.480469 0 L 53.652344 -50.277344 L 53.652344 0 L 71.609375 0 L 71.609375 -71.75 L 40.148438 -71.75 L 36.34375 -32.75 L 32.535156 -71.75 Z M 1.078125 -71.75 "/></g></g></g><g fill="#2c3d4b" fill-opacity="1"><g transform="translate(391.71745, 138.684883)"><g><path d="M 0.71875 -14.652344 C 0.71875 -7.398438 4.597656 0 15.871094 0 L 49.34375 0 L 49.34375 -34.835938 C 49.34375 -48.410156 40.652344 -53.867188 27.9375 -53.867188 L 10.414062 -53.867188 L 5.171875 -32.320312 L 19.320312 -32.320312 C 25.066406 -32.320312 27.9375 -31.816406 27.9375 -29.449219 L 16.734375 -29.449219 C 4.667969 -29.449219 0.71875 -21.761719 0.71875 -14.652344 Z M 22.910156 -19.824219 C 22.910156 -21.1875 23.988281 -21.691406 25.355469 -21.691406 L 27.9375 -21.691406 L 27.9375 -18.027344 L 25.355469 -18.027344 C 24.0625 -18.027344 22.910156 -18.457031 22.910156 -19.824219 Z M 22.910156 -19.824219 "/></g></g></g><g fill="#2c3d4b" fill-opacity="1"><g transform="translate(442.135821, 138.684883)"><g><path d="M 1.078125 -64.640625 L 1.078125 -20.683594 C 1.078125 -6.464844 11.347656 0 23.128906 0 L 29.519531 0 L 29.519531 -21.332031 L 26.070312 -21.402344 C 24.132812 -21.402344 22.480469 -22.695312 22.480469 -24.996094 L 22.480469 -32.320312 L 29.589844 -32.320312 L 29.589844 -53.867188 L 22.410156 -53.867188 L 22.410156 -64.640625 Z M 1.078125 -64.640625 "/></g></g></g><g fill="#2c3d4b" fill-opacity="1"><g transform="translate(472.803429, 138.684883)"><g><path d="M 0.71875 -26.933594 C 0.71875 -10.199219 12.496094 0 28.730469 0 C 44.960938 0 53.292969 0 53.292969 0 L 53.292969 -21.546875 C 53.292969 -21.546875 30.8125 -21.546875 28.730469 -21.546875 C 24.851562 -21.546875 22.335938 -22.550781 22.335938 -24.777344 L 54.371094 -24.777344 C 58.105469 -40.796875 48.910156 -54.945312 28.800781 -54.945312 C 12.136719 -54.945312 0.71875 -43.238281 0.71875 -26.933594 Z M 28.730469 -36.128906 C 31.816406 -36.128906 34.261719 -34.691406 35.480469 -32.320312 L 22.050781 -32.320312 C 23.199219 -34.691406 25.640625 -36.128906 28.730469 -36.128906 Z M 28.730469 -36.128906 "/></g></g></g><g fill="#2c3d4b" fill-opacity="1"><g transform="translate(528.752026, 138.684883)"><g><path d="M 24.203125 0 C 31.890625 0 40.4375 -3.230469 40.4375 -13.359375 C 40.4375 -23.054688 28.800781 -27.292969 28.800781 -30.597656 C 28.800781 -32.25 30.382812 -32.25 35.195312 -32.25 L 38.640625 -32.25 L 38.640625 -53.867188 L 13.648438 -53.867188 C 6.320312 -53.867188 0 -49.84375 0 -42.089844 C 0 -32.320312 12.28125 -26.863281 12.28125 -23.628906 C 12.28125 -21.476562 9.695312 -21.546875 6.824219 -21.546875 L 0 -21.546875 L 0 0 Z M 24.203125 0 "/></g></g></g><g clip-path="url(#f67b0204b6)"><g fill="#ab5429" fill-opacity="1"><g transform="translate(160.720506, 181.153293)"><g><path d="M 6 -4.125 L 8.765625 -15.1875 L 11.40625 -15.1875 L 6.4375 2.140625 C 6.0625 3.441406 5.53125 4.429688 4.84375 5.109375 C 4.164062 5.785156 3.394531 6.125 2.53125 6.125 C 2.1875 6.125 1.753906 6.050781 1.234375 5.90625 L 1.234375 3.796875 L 1.78125 3.859375 C 2.5 3.859375 3.0625 3.6875 3.46875 3.34375 C 3.875 3 4.207031 2.410156 4.46875 1.578125 L 4.953125 -0.125 L 0.484375 -15.1875 L 3.203125 -15.1875 Z M 6 -4.125 "/></g></g></g></g><g fill="#ab5429" fill-opacity="1"><g transform="translate(172.684282, 181.153293)"><g><path d="M 1.328125 -8.296875 C 1.328125 -10.503906 1.863281 -12.25 2.9375 -13.53125 C 4.007812 -14.820312 5.425781 -15.46875 7.1875 -15.46875 C 8.945312 -15.46875 10.359375 -14.835938 11.421875 -13.578125 C 12.492188 -12.328125 13.046875 -10.617188 13.078125 -8.453125 L 13.078125 -6.859375 C 13.078125 -4.660156 12.539062 -2.921875 11.46875 -1.640625 C 10.40625 -0.359375 8.988281 0.28125 7.21875 0.28125 C 5.457031 0.28125 4.046875 -0.335938 2.984375 -1.578125 C 1.921875 -2.828125 1.367188 -4.515625 1.328125 -6.640625 Z M 3.8125 -6.859375 C 3.8125 -5.296875 4.117188 -4.066406 4.734375 -3.171875 C 5.347656 -2.285156 6.175781 -1.84375 7.21875 -1.84375 C 9.40625 -1.84375 10.53125 -3.421875 10.59375 -6.578125 L 10.59375 -8.296875 C 10.59375 -9.847656 10.28125 -11.070312 9.65625 -11.96875 C 9.039062 -12.875 8.21875 -13.328125 7.1875 -13.328125 C 6.164062 -13.328125 5.347656 -12.875 4.734375 -11.96875 C 4.117188 -11.070312 3.8125 -9.851562 3.8125 -8.3125 Z M 3.8125 -6.859375 "/></g></g></g><g fill="#ab5429" fill-opacity="1"><g transform="translate(187.102513, 181.153293)"><g><path d="M 9.59375 -1.328125 C 8.769531 -0.253906 7.566406 0.28125 5.984375 0.28125 C 4.609375 0.28125 3.570312 -0.191406 2.875 -1.140625 C 2.175781 -2.085938 1.820312 -3.472656 1.8125 -5.296875 L 1.8125 -15.1875 L 4.28125 -15.1875 L 4.28125 -5.46875 C 4.28125 -3.101562 4.988281 -1.921875 6.40625 -1.921875 C 7.914062 -1.921875 8.957031 -2.59375 9.53125 -3.9375 L 9.53125 -15.1875 L 12.015625 -15.1875 L 12.015625 0 L 9.65625 0 Z M 9.59375 -1.328125 "/></g></g></g><g fill="#ab5429" fill-opacity="1"><g transform="translate(200.987774, 181.153293)"><g><path d="M 8.125 -12.859375 C 7.78125 -12.921875 7.40625 -12.953125 7 -12.953125 C 5.726562 -12.953125 4.835938 -12.253906 4.328125 -10.859375 L 4.328125 0 L 1.859375 0 L 1.859375 -15.1875 L 4.265625 -15.1875 L 4.3125 -13.640625 C 4.96875 -14.859375 5.90625 -15.46875 7.125 -15.46875 C 7.519531 -15.46875 7.847656 -15.398438 8.109375 -15.265625 Z M 8.125 -12.859375 "/></g></g></g><g fill="#ab5429" fill-opacity="1"><g transform="translate(209.725681, 181.153293)"><g/></g></g><g fill="#ab5429" fill-opacity="1"><g transform="translate(216.303658, 181.153293)"><g><path d="M 9.671875 0 C 9.515625 -0.320312 9.40625 -0.875 9.34375 -1.65625 C 8.46875 -0.363281 7.347656 0.28125 5.984375 0.28125 C 4.609375 0.28125 3.53125 -0.101562 2.75 -0.875 C 1.976562 -1.644531 1.59375 -2.734375 1.59375 -4.140625 C 1.59375 -5.679688 2.117188 -6.90625 3.171875 -7.8125 C 4.222656 -8.71875 5.660156 -9.179688 7.484375 -9.203125 L 9.296875 -9.203125 L 9.296875 -10.8125 C 9.296875 -11.71875 9.09375 -12.363281 8.6875 -12.75 C 8.289062 -13.132812 7.679688 -13.328125 6.859375 -13.328125 C 6.109375 -13.328125 5.5 -13.101562 5.03125 -12.65625 C 4.5625 -12.21875 4.328125 -11.65625 4.328125 -10.96875 L 1.859375 -10.96875 C 1.859375 -11.75 2.085938 -12.488281 2.546875 -13.1875 C 3.003906 -13.894531 3.617188 -14.453125 4.390625 -14.859375 C 5.171875 -15.265625 6.035156 -15.46875 6.984375 -15.46875 C 8.535156 -15.46875 9.71875 -15.078125 10.53125 -14.296875 C 11.34375 -13.523438 11.753906 -12.40625 11.765625 -10.9375 L 11.765625 -3.265625 C 11.773438 -2.097656 11.9375 -1.082031 12.25 -0.21875 L 12.25 0 Z M 6.359375 -1.984375 C 6.960938 -1.984375 7.539062 -2.148438 8.09375 -2.484375 C 8.644531 -2.816406 9.046875 -3.238281 9.296875 -3.75 L 9.296875 -7.359375 L 7.90625 -7.359375 C 6.71875 -7.347656 5.78125 -7.085938 5.09375 -6.578125 C 4.414062 -6.066406 4.078125 -5.351562 4.078125 -4.4375 C 4.078125 -3.570312 4.25 -2.945312 4.59375 -2.5625 C 4.945312 -2.175781 5.535156 -1.984375 6.359375 -1.984375 Z M 6.359375 -1.984375 "/></g></g></g><g fill="#ab5429" fill-opacity="1"><g transform="translate(230.0627, 181.153293)"><g><path d="M 4.53125 0 L 2.046875 0 L 2.046875 -21.546875 L 4.53125 -21.546875 Z M 4.53125 0 "/></g></g></g><g fill="#ab5429" fill-opacity="1"><g transform="translate(236.640677, 181.153293)"><g><path d="M 4.53125 0 L 2.046875 0 L 2.046875 -21.546875 L 4.53125 -21.546875 Z M 4.53125 0 "/></g></g></g><g fill="#ab5429" fill-opacity="1"><g transform="translate(243.218655, 181.153293)"><g><path d="M 6.453125 -7.625 L 0.65625 -7.625 L 0.65625 -9.734375 L 6.453125 -9.734375 Z M 6.453125 -7.625 "/></g></g></g><g fill="#ab5429" fill-opacity="1"><g transform="translate(250.343617, 181.153293)"><g><path d="M 4.53125 0 L 2.046875 0 L 2.046875 -15.1875 L 4.53125 -15.1875 Z M 4.734375 -19.203125 C 4.734375 -18.785156 4.613281 -18.4375 4.375 -18.15625 C 4.144531 -17.875 3.789062 -17.734375 3.3125 -17.734375 C 2.84375 -17.734375 2.488281 -17.875 2.25 -18.15625 C 2.019531 -18.4375 1.90625 -18.785156 1.90625 -19.203125 C 1.90625 -19.628906 2.019531 -19.984375 2.25 -20.265625 C 2.488281 -20.554688 2.84375 -20.703125 3.3125 -20.703125 C 3.78125 -20.703125 4.132812 -20.554688 4.375 -20.265625 C 4.613281 -19.972656 4.734375 -19.617188 4.734375 -19.203125 Z M 4.734375 -19.203125 "/></g></g></g><g fill="#ab5429" fill-opacity="1"><g transform="translate(256.921594, 181.153293)"><g><path d="M 4.1875 -15.1875 L 4.265625 -13.546875 C 5.222656 -14.828125 6.453125 -15.46875 7.953125 -15.46875 C 10.640625 -15.46875 12 -13.675781 12.03125 -10.09375 L 12.03125 0 L 9.5625 0 L 9.5625 -9.96875 C 9.5625 -11.15625 9.363281 -12 8.96875 -12.5 C 8.570312 -13.007812 7.976562 -13.265625 7.1875 -13.265625 C 6.5625 -13.265625 6.003906 -13.054688 5.515625 -12.640625 C 5.023438 -12.234375 4.628906 -11.695312 4.328125 -11.03125 L 4.328125 0 L 1.859375 0 L 1.859375 -15.1875 Z M 4.1875 -15.1875 "/></g></g></g><g fill="#ab5429" fill-opacity="1"><g transform="translate(270.820891, 181.153293)"><g><path d="M 6.453125 -7.625 L 0.65625 -7.625 L 0.65625 -9.734375 L 6.453125 -9.734375 Z M 6.453125 -7.625 "/></g></g></g><g fill="#ab5429" fill-opacity="1"><g transform="translate(277.945854, 181.153293)"><g><path d="M 1.328125 -8.296875 C 1.328125 -10.503906 1.863281 -12.25 2.9375 -13.53125 C 4.007812 -14.820312 5.425781 -15.46875 7.1875 -15.46875 C 8.945312 -15.46875 10.359375 -14.835938 11.421875 -13.578125 C 12.492188 -12.328125 13.046875 -10.617188 13.078125 -8.453125 L 13.078125 -6.859375 C 13.078125 -4.660156 12.539062 -2.921875 11.46875 -1.640625 C 10.40625 -0.359375 8.988281 0.28125 7.21875 0.28125 C 5.457031 0.28125 4.046875 -0.335938 2.984375 -1.578125 C 1.921875 -2.828125 1.367188 -4.515625 1.328125 -6.640625 Z M 3.8125 -6.859375 C 3.8125 -5.296875 4.117188 -4.066406 4.734375 -3.171875 C 5.347656 -2.285156 6.175781 -1.84375 7.21875 -1.84375 C 9.40625 -1.84375 10.53125 -3.421875 10.59375 -6.578125 L 10.59375 -8.296875 C 10.59375 -9.847656 10.28125 -11.070312 9.65625 -11.96875 C 9.039062 -12.875 8.21875 -13.328125 7.1875 -13.328125 C 6.164062 -13.328125 5.347656 -12.875 4.734375 -11.96875 C 4.117188 -11.070312 3.8125 -9.851562 3.8125 -8.3125 Z M 3.8125 -6.859375 "/></g></g></g><g fill="#ab5429" fill-opacity="1"><g transform="translate(292.364084, 181.153293)"><g><path d="M 4.1875 -15.1875 L 4.265625 -13.546875 C 5.222656 -14.828125 6.453125 -15.46875 7.953125 -15.46875 C 10.640625 -15.46875 12 -13.675781 12.03125 -10.09375 L 12.03125 0 L 9.5625 0 L 9.5625 -9.96875 C 9.5625 -11.15625 9.363281 -12 8.96875 -12.5 C 8.570312 -13.007812 7.976562 -13.265625 7.1875 -13.265625 C 6.5625 -13.265625 6.003906 -13.054688 5.515625 -12.640625 C 5.023438 -12.234375 4.628906 -11.695312 4.328125 -11.03125 L 4.328125 0 L 1.859375 0 L 1.859375 -15.1875 Z M 4.1875 -15.1875 "/></g></g></g><g fill="#ab5429" fill-opacity="1"><g transform="translate(306.263381, 181.153293)"><g><path d="M 7.28125 0.28125 C 5.394531 0.28125 3.945312 -0.28125 2.9375 -1.40625 C 1.925781 -2.53125 1.410156 -4.1875 1.390625 -6.375 L 1.390625 -8.203125 C 1.390625 -10.472656 1.878906 -12.25 2.859375 -13.53125 C 3.847656 -14.820312 5.226562 -15.46875 7 -15.46875 C 8.78125 -15.46875 10.109375 -14.898438 10.984375 -13.765625 C 11.867188 -12.628906 12.316406 -10.863281 12.328125 -8.46875 L 12.328125 -6.84375 L 3.859375 -6.84375 L 3.859375 -6.5 C 3.859375 -4.875 4.164062 -3.691406 4.78125 -2.953125 C 5.394531 -2.210938 6.273438 -1.84375 7.421875 -1.84375 C 8.148438 -1.84375 8.789062 -1.976562 9.34375 -2.25 C 9.90625 -2.53125 10.429688 -2.96875 10.921875 -3.5625 L 12.203125 -2 C 11.128906 -0.476562 9.488281 0.28125 7.28125 0.28125 Z M 7 -13.328125 C 5.96875 -13.328125 5.203125 -12.972656 4.703125 -12.265625 C 4.210938 -11.554688 3.9375 -10.460938 3.875 -8.984375 L 9.84375 -8.984375 L 9.84375 -9.3125 C 9.78125 -10.757812 9.519531 -11.789062 9.0625 -12.40625 C 8.613281 -13.019531 7.925781 -13.328125 7 -13.328125 Z M 7 -13.328125 "/></g></g></g><g fill="#ab5429" fill-opacity="1"><g transform="translate(319.713862, 181.153293)"><g/></g></g><g fill="#ab5429" fill-opacity="1"><g transform="translate(326.291839, 181.153293)"><g><path d="M 12.859375 -6.859375 C 12.859375 -4.492188 12.429688 -2.710938 11.578125 -1.515625 C 10.722656 -0.316406 9.488281 0.28125 7.875 0.28125 C 6.257812 0.28125 5.050781 -0.410156 4.25 -1.796875 L 4.125 0 L 1.859375 0 L 1.859375 -21.546875 L 4.328125 -21.546875 L 4.328125 -13.515625 C 5.148438 -14.816406 6.320312 -15.46875 7.84375 -15.46875 C 9.507812 -15.46875 10.757812 -14.875 11.59375 -13.6875 C 12.425781 -12.507812 12.847656 -10.734375 12.859375 -8.359375 Z M 10.375 -8.28125 C 10.375 -10.070312 10.125 -11.347656 9.625 -12.109375 C 9.125 -12.878906 8.316406 -13.265625 7.203125 -13.265625 C 5.921875 -13.265625 4.960938 -12.570312 4.328125 -11.1875 L 4.328125 -3.953125 C 4.953125 -2.585938 5.914062 -1.90625 7.21875 -1.90625 C 8.34375 -1.90625 9.148438 -2.296875 9.640625 -3.078125 C 10.128906 -3.867188 10.375 -5.09375 10.375 -6.75 Z M 10.375 -8.28125 "/></g></g></g><g fill="#ab5429" fill-opacity="1"><g transform="translate(340.45761, 181.153293)"><g><path d="M 9.59375 -1.328125 C 8.769531 -0.253906 7.566406 0.28125 5.984375 0.28125 C 4.609375 0.28125 3.570312 -0.191406 2.875 -1.140625 C 2.175781 -2.085938 1.820312 -3.472656 1.8125 -5.296875 L 1.8125 -15.1875 L 4.28125 -15.1875 L 4.28125 -5.46875 C 4.28125 -3.101562 4.988281 -1.921875 6.40625 -1.921875 C 7.914062 -1.921875 8.957031 -2.59375 9.53125 -3.9375 L 9.53125 -15.1875 L 12.015625 -15.1875 L 12.015625 0 L 9.65625 0 Z M 9.59375 -1.328125 "/></g></g></g><g fill="#ab5429" fill-opacity="1"><g transform="translate(354.342871, 181.153293)"><g><path d="M 9.234375 -3.890625 C 9.234375 -4.421875 9.03125 -4.878906 8.625 -5.265625 C 8.226562 -5.648438 7.453125 -6.097656 6.296875 -6.609375 C 4.960938 -7.160156 4.019531 -7.628906 3.46875 -8.015625 C 2.925781 -8.410156 2.519531 -8.859375 2.25 -9.359375 C 1.976562 -9.859375 1.84375 -10.457031 1.84375 -11.15625 C 1.84375 -12.382812 2.289062 -13.410156 3.1875 -14.234375 C 4.09375 -15.054688 5.25 -15.46875 6.65625 -15.46875 C 8.132812 -15.46875 9.320312 -15.035156 10.21875 -14.171875 C 11.113281 -13.304688 11.5625 -12.203125 11.5625 -10.859375 L 9.09375 -10.859375 C 9.09375 -11.546875 8.863281 -12.128906 8.40625 -12.609375 C 7.945312 -13.085938 7.363281 -13.328125 6.65625 -13.328125 C 5.925781 -13.328125 5.351562 -13.132812 4.9375 -12.75 C 4.519531 -12.375 4.3125 -11.867188 4.3125 -11.234375 C 4.3125 -10.734375 4.460938 -10.328125 4.765625 -10.015625 C 5.066406 -9.710938 5.796875 -9.304688 6.953125 -8.796875 C 8.796875 -8.078125 10.050781 -7.375 10.71875 -6.6875 C 11.382812 -6 11.71875 -5.125 11.71875 -4.0625 C 11.71875 -2.75 11.265625 -1.695312 10.359375 -0.90625 C 9.453125 -0.113281 8.234375 0.28125 6.703125 0.28125 C 5.117188 0.28125 3.835938 -0.171875 2.859375 -1.078125 C 1.878906 -1.984375 1.390625 -3.132812 1.390625 -4.53125 L 3.890625 -4.53125 C 3.910156 -3.6875 4.164062 -3.023438 4.65625 -2.546875 C 5.144531 -2.078125 5.828125 -1.84375 6.703125 -1.84375 C 7.523438 -1.84375 8.148438 -2.023438 8.578125 -2.390625 C 9.015625 -2.765625 9.234375 -3.265625 9.234375 -3.890625 Z M 9.234375 -3.890625 "/></g></g></g><g fill="#ab5429" fill-opacity="1"><g transform="translate(367.428688, 181.153293)"><g><path d="M 4.53125 0 L 2.046875 0 L 2.046875 -15.1875 L 4.53125 -15.1875 Z M 4.734375 -19.203125 C 4.734375 -18.785156 4.613281 -18.4375 4.375 -18.15625 C 4.144531 -17.875 3.789062 -17.734375 3.3125 -17.734375 C 2.84375 -17.734375 2.488281 -17.875 2.25 -18.15625 C 2.019531 -18.4375 1.90625 -18.785156 1.90625 -19.203125 C 1.90625 -19.628906 2.019531 -19.984375 2.25 -20.265625 C 2.488281 -20.554688 2.84375 -20.703125 3.3125 -20.703125 C 3.78125 -20.703125 4.132812 -20.554688 4.375 -20.265625 C 4.613281 -19.972656 4.734375 -19.617188 4.734375 -19.203125 Z M 4.734375 -19.203125 "/></g></g></g><g fill="#ab5429" fill-opacity="1"><g transform="translate(374.006666, 181.153293)"><g><path d="M 4.1875 -15.1875 L 4.265625 -13.546875 C 5.222656 -14.828125 6.453125 -15.46875 7.953125 -15.46875 C 10.640625 -15.46875 12 -13.675781 12.03125 -10.09375 L 12.03125 0 L 9.5625 0 L 9.5625 -9.96875 C 9.5625 -11.15625 9.363281 -12 8.96875 -12.5 C 8.570312 -13.007812 7.976562 -13.265625 7.1875 -13.265625 C 6.5625 -13.265625 6.003906 -13.054688 5.515625 -12.640625 C 5.023438 -12.234375 4.628906 -11.695312 4.328125 -11.03125 L 4.328125 0 L 1.859375 0 L 1.859375 -15.1875 Z M 4.1875 -15.1875 "/></g></g></g><g fill="#ab5429" fill-opacity="1"><g transform="translate(387.905963, 181.153293)"><g><path d="M 7.28125 0.28125 C 5.394531 0.28125 3.945312 -0.28125 2.9375 -1.40625 C 1.925781 -2.53125 1.410156 -4.1875 1.390625 -6.375 L 1.390625 -8.203125 C 1.390625 -10.472656 1.878906 -12.25 2.859375 -13.53125 C 3.847656 -14.820312 5.226562 -15.46875 7 -15.46875 C 8.78125 -15.46875 10.109375 -14.898438 10.984375 -13.765625 C 11.867188 -12.628906 12.316406 -10.863281 12.328125 -8.46875 L 12.328125 -6.84375 L 3.859375 -6.84375 L 3.859375 -6.5 C 3.859375 -4.875 4.164062 -3.691406 4.78125 -2.953125 C 5.394531 -2.210938 6.273438 -1.84375 7.421875 -1.84375 C 8.148438 -1.84375 8.789062 -1.976562 9.34375 -2.25 C 9.90625 -2.53125 10.429688 -2.96875 10.921875 -3.5625 L 12.203125 -2 C 11.128906 -0.476562 9.488281 0.28125 7.28125 0.28125 Z M 7 -13.328125 C 5.96875 -13.328125 5.203125 -12.972656 4.703125 -12.265625 C 4.210938 -11.554688 3.9375 -10.460938 3.875 -8.984375 L 9.84375 -8.984375 L 9.84375 -9.3125 C 9.78125 -10.757812 9.519531 -11.789062 9.0625 -12.40625 C 8.613281 -13.019531 7.925781 -13.328125 7 -13.328125 Z M 7 -13.328125 "/></g></g></g><g fill="#ab5429" fill-opacity="1"><g transform="translate(401.356443, 181.153293)"><g><path d="M 9.234375 -3.890625 C 9.234375 -4.421875 9.03125 -4.878906 8.625 -5.265625 C 8.226562 -5.648438 7.453125 -6.097656 6.296875 -6.609375 C 4.960938 -7.160156 4.019531 -7.628906 3.46875 -8.015625 C 2.925781 -8.410156 2.519531 -8.859375 2.25 -9.359375 C 1.976562 -9.859375 1.84375 -10.457031 1.84375 -11.15625 C 1.84375 -12.382812 2.289062 -13.410156 3.1875 -14.234375 C 4.09375 -15.054688 5.25 -15.46875 6.65625 -15.46875 C 8.132812 -15.46875 9.320312 -15.035156 10.21875 -14.171875 C 11.113281 -13.304688 11.5625 -12.203125 11.5625 -10.859375 L 9.09375 -10.859375 C 9.09375 -11.546875 8.863281 -12.128906 8.40625 -12.609375 C 7.945312 -13.085938 7.363281 -13.328125 6.65625 -13.328125 C 5.925781 -13.328125 5.351562 -13.132812 4.9375 -12.75 C 4.519531 -12.375 4.3125 -11.867188 4.3125 -11.234375 C 4.3125 -10.734375 4.460938 -10.328125 4.765625 -10.015625 C 5.066406 -9.710938 5.796875 -9.304688 6.953125 -8.796875 C 8.796875 -8.078125 10.050781 -7.375 10.71875 -6.6875 C 11.382812 -6 11.71875 -5.125 11.71875 -4.0625 C 11.71875 -2.75 11.265625 -1.695312 10.359375 -0.90625 C 9.453125 -0.113281 8.234375 0.28125 6.703125 0.28125 C 5.117188 0.28125 3.835938 -0.171875 2.859375 -1.078125 C 1.878906 -1.984375 1.390625 -3.132812 1.390625 -4.53125 L 3.890625 -4.53125 C 3.910156 -3.6875 4.164062 -3.023438 4.65625 -2.546875 C 5.144531 -2.078125 5.828125 -1.84375 6.703125 -1.84375 C 7.523438 -1.84375 8.148438 -2.023438 8.578125 -2.390625 C 9.015625 -2.765625 9.234375 -3.265625 9.234375 -3.890625 Z M 9.234375 -3.890625 "/></g></g></g><g fill="#ab5429" fill-opacity="1"><g transform="translate(414.44226, 181.153293)"><g><path d="M 9.234375 -3.890625 C 9.234375 -4.421875 9.03125 -4.878906 8.625 -5.265625 C 8.226562 -5.648438 7.453125 -6.097656 6.296875 -6.609375 C 4.960938 -7.160156 4.019531 -7.628906 3.46875 -8.015625 C 2.925781 -8.410156 2.519531 -8.859375 2.25 -9.359375 C 1.976562 -9.859375 1.84375 -10.457031 1.84375 -11.15625 C 1.84375 -12.382812 2.289062 -13.410156 3.1875 -14.234375 C 4.09375 -15.054688 5.25 -15.46875 6.65625 -15.46875 C 8.132812 -15.46875 9.320312 -15.035156 10.21875 -14.171875 C 11.113281 -13.304688 11.5625 -12.203125 11.5625 -10.859375 L 9.09375 -10.859375 C 9.09375 -11.546875 8.863281 -12.128906 8.40625 -12.609375 C 7.945312 -13.085938 7.363281 -13.328125 6.65625 -13.328125 C 5.925781 -13.328125 5.351562 -13.132812 4.9375 -12.75 C 4.519531 -12.375 4.3125 -11.867188 4.3125 -11.234375 C 4.3125 -10.734375 4.460938 -10.328125 4.765625 -10.015625 C 5.066406 -9.710938 5.796875 -9.304688 6.953125 -8.796875 C 8.796875 -8.078125 10.050781 -7.375 10.71875 -6.6875 C 11.382812 -6 11.71875 -5.125 11.71875 -4.0625 C 11.71875 -2.75 11.265625 -1.695312 10.359375 -0.90625 C 9.453125 -0.113281 8.234375 0.28125 6.703125 0.28125 C 5.117188 0.28125 3.835938 -0.171875 2.859375 -1.078125 C 1.878906 -1.984375 1.390625 -3.132812 1.390625 -4.53125 L 3.890625 -4.53125 C 3.910156 -3.6875 4.164062 -3.023438 4.65625 -2.546875 C 5.144531 -2.078125 5.828125 -1.84375 6.703125 -1.84375 C 7.523438 -1.84375 8.148438 -2.023438 8.578125 -2.390625 C 9.015625 -2.765625 9.234375 -3.265625 9.234375 -3.890625 Z M 9.234375 -3.890625 "/></g></g></g><g fill="#ab5429" fill-opacity="1"><g transform="translate(427.528077, 181.153293)"><g/></g></g><g fill="#ab5429" fill-opacity="1"><g transform="translate(434.106054, 181.153293)"><g><path d="M 4.1875 -15.1875 L 4.25 -13.78125 C 5.175781 -14.90625 6.394531 -15.46875 7.90625 -15.46875 C 9.601562 -15.46875 10.789062 -14.734375 11.46875 -13.265625 C 12.414062 -14.734375 13.742188 -15.46875 15.453125 -15.46875 C 18.242188 -15.46875 19.671875 -13.722656 19.734375 -10.234375 L 19.734375 0 L 17.265625 0 L 17.265625 -9.984375 C 17.265625 -11.085938 17.066406 -11.910156 16.671875 -12.453125 C 16.285156 -12.992188 15.625 -13.265625 14.6875 -13.265625 C 13.9375 -13.265625 13.328125 -12.972656 12.859375 -12.390625 C 12.398438 -11.804688 12.128906 -11.066406 12.046875 -10.171875 L 12.046875 0 L 9.5625 0 L 9.5625 -10.109375 C 9.53125 -12.210938 8.671875 -13.265625 6.984375 -13.265625 C 5.734375 -13.265625 4.847656 -12.632812 4.328125 -11.375 L 4.328125 0 L 1.859375 0 L 1.859375 -15.1875 Z M 4.1875 -15.1875 "/></g></g></g><g fill="#ab5429" fill-opacity="1"><g transform="translate(455.719385, 181.153293)"><g><path d="M 9.671875 0 C 9.515625 -0.320312 9.40625 -0.875 9.34375 -1.65625 C 8.46875 -0.363281 7.347656 0.28125 5.984375 0.28125 C 4.609375 0.28125 3.53125 -0.101562 2.75 -0.875 C 1.976562 -1.644531 1.59375 -2.734375 1.59375 -4.140625 C 1.59375 -5.679688 2.117188 -6.90625 3.171875 -7.8125 C 4.222656 -8.71875 5.660156 -9.179688 7.484375 -9.203125 L 9.296875 -9.203125 L 9.296875 -10.8125 C 9.296875 -11.71875 9.09375 -12.363281 8.6875 -12.75 C 8.289062 -13.132812 7.679688 -13.328125 6.859375 -13.328125 C 6.109375 -13.328125 5.5 -13.101562 5.03125 -12.65625 C 4.5625 -12.21875 4.328125 -11.65625 4.328125 -10.96875 L 1.859375 -10.96875 C 1.859375 -11.75 2.085938 -12.488281 2.546875 -13.1875 C 3.003906 -13.894531 3.617188 -14.453125 4.390625 -14.859375 C 5.171875 -15.265625 6.035156 -15.46875 6.984375 -15.46875 C 8.535156 -15.46875 9.71875 -15.078125 10.53125 -14.296875 C 11.34375 -13.523438 11.753906 -12.40625 11.765625 -10.9375 L 11.765625 -3.265625 C 11.773438 -2.097656 11.9375 -1.082031 12.25 -0.21875 L 12.25 0 Z M 6.359375 -1.984375 C 6.960938 -1.984375 7.539062 -2.148438 8.09375 -2.484375 C 8.644531 -2.816406 9.046875 -3.238281 9.296875 -3.75 L 9.296875 -7.359375 L 7.90625 -7.359375 C 6.71875 -7.347656 5.78125 -7.085938 5.09375 -6.578125 C 4.414062 -6.066406 4.078125 -5.351562 4.078125 -4.4375 C 4.078125 -3.570312 4.25 -2.945312 4.59375 -2.5625 C 4.945312 -2.175781 5.535156 -1.984375 6.359375 -1.984375 Z M 6.359375 -1.984375 "/></g></g></g><g fill="#ab5429" fill-opacity="1"><g transform="translate(469.478427, 181.153293)"><g><path d="M 5.109375 -18.859375 L 5.109375 -15.1875 L 7.390625 -15.1875 L 7.390625 -13.171875 L 5.109375 -13.171875 L 5.109375 -3.765625 C 5.109375 -3.160156 5.207031 -2.703125 5.40625 -2.390625 C 5.601562 -2.085938 5.9375 -1.9375 6.40625 -1.9375 C 6.738281 -1.9375 7.070312 -1.992188 7.40625 -2.109375 L 7.375 0 C 6.8125 0.1875 6.238281 0.28125 5.65625 0.28125 C 4.675781 0.28125 3.925781 -0.0664062 3.40625 -0.765625 C 2.894531 -1.472656 2.640625 -2.46875 2.640625 -3.75 L 2.640625 -13.171875 L 0.328125 -13.171875 L 0.328125 -15.1875 L 2.640625 -15.1875 L 2.640625 -18.859375 Z M 5.109375 -18.859375 "/></g></g></g><g fill="#ab5429" fill-opacity="1"><g transform="translate(477.963874, 181.153293)"><g><path d="M 7.28125 0.28125 C 5.394531 0.28125 3.945312 -0.28125 2.9375 -1.40625 C 1.925781 -2.53125 1.410156 -4.1875 1.390625 -6.375 L 1.390625 -8.203125 C 1.390625 -10.472656 1.878906 -12.25 2.859375 -13.53125 C 3.847656 -14.820312 5.226562 -15.46875 7 -15.46875 C 8.78125 -15.46875 10.109375 -14.898438 10.984375 -13.765625 C 11.867188 -12.628906 12.316406 -10.863281 12.328125 -8.46875 L 12.328125 -6.84375 L 3.859375 -6.84375 L 3.859375 -6.5 C 3.859375 -4.875 4.164062 -3.691406 4.78125 -2.953125 C 5.394531 -2.210938 6.273438 -1.84375 7.421875 -1.84375 C 8.148438 -1.84375 8.789062 -1.976562 9.34375 -2.25 C 9.90625 -2.53125 10.429688 -2.96875 10.921875 -3.5625 L 12.203125 -2 C 11.128906 -0.476562 9.488281 0.28125 7.28125 0.28125 Z M 7 -13.328125 C 5.96875 -13.328125 5.203125 -12.972656 4.703125 -12.265625 C 4.210938 -11.554688 3.9375 -10.460938 3.875 -8.984375 L 9.84375 -8.984375 L 9.84375 -9.3125 C 9.78125 -10.757812 9.519531 -11.789062 9.0625 -12.40625 C 8.613281 -13.019531 7.925781 -13.328125 7 -13.328125 Z M 7 -13.328125 "/></g></g></g><g fill="#ab5429" fill-opacity="1"><g transform="translate(491.414355, 181.153293)"><g><path d="M 2.015625 -1.359375 C 2.015625 -1.804688 2.144531 -2.179688 2.40625 -2.484375 C 2.675781 -2.785156 3.078125 -2.9375 3.609375 -2.9375 C 4.148438 -2.9375 4.554688 -2.785156 4.828125 -2.484375 C 5.109375 -2.179688 5.25 -1.804688 5.25 -1.359375 C 5.25 -0.929688 5.109375 -0.570312 4.828125 -0.28125 C 4.554688 0.0078125 4.148438 0.15625 3.609375 0.15625 C 3.078125 0.15625 2.675781 0.0078125 2.40625 -0.28125 C 2.144531 -0.570312 2.015625 -0.929688 2.015625 -1.359375 Z M 2.015625 -1.359375 "/></g></g></g></svg>