<svg xmlns="http://www.w3.org/2000/svg" xmlns:xlink="http://www.w3.org/1999/xlink" width="130" zoomAndPan="magnify" viewBox="0 0 97.5 74.999997" height="100" preserveAspectRatio="xMidYMid meet" version="1.0"><defs><filter x="0%" y="0%" width="100%" height="100%" id="a15105d107"><feColorMatrix values="0 0 0 0 1 0 0 0 0 1 0 0 0 0 1 0 0 0 1 0" color-interpolation-filters="sRGB"/></filter><clipPath id="bf1a36e736"><path d="M 0 0.191406 L 97.003906 0.191406 L 97.003906 74.808594 L 0 74.808594 Z M 0 0.191406 " clip-rule="nonzero"/></clipPath><mask id="e364376ee4"><g filter="url(#a15105d107)"><rect x="-9.75" width="117" fill="#000000" y="-7.5" height="89.999996" fill-opacity="0.098"/></g></mask><clipPath id="ea6b52ae4f"><path d="M 0.25 0.613281 L 39.246094 0.613281 L 39.246094 9.605469 L 0.25 9.605469 Z M 0.25 0.613281 " clip-rule="nonzero"/></clipPath><clipPath id="804f3738db"><rect x="0" width="40" y="0" height="11"/></clipPath><mask id="9300779d3a"><g filter="url(#a15105d107)"><rect x="-9.75" width="117" fill="#000000" y="-7.5" height="89.999996" fill-opacity="0.098"/></g></mask><clipPath id="74af7d310d"><path d="M 0.496094 6 L 16.996094 6 L 16.996094 15.21875 L 0.496094 15.21875 Z M 0.496094 6 " clip-rule="nonzero"/></clipPath><clipPath id="ca3f89c4ed"><rect x="0" width="18" y="0" height="16"/></clipPath><mask id="b9d447974e"><g filter="url(#a15105d107)"><rect x="-9.75" width="117" fill="#000000" y="-7.5" height="89.999996" fill-opacity="0.098"/></g></mask><clipPath id="d6db0d7f14"><path d="M 1 2 L 13 2 L 13 15.109375 L 1 15.109375 Z M 1 2 " clip-rule="nonzero"/></clipPath><clipPath id="dd36a46d95"><path d="M 9 0.109375 L 15.242188 0.109375 L 15.242188 6 L 9 6 Z M 9 0.109375 " clip-rule="nonzero"/></clipPath><clipPath id="aec7cbad72"><rect x="0" width="17" y="0" height="17"/></clipPath><mask id="12b967da46"><g filter="url(#a15105d107)"><rect x="-9.75" width="117" fill="#000000" y="-7.5" height="89.999996" fill-opacity="0.098"/></g></mask><clipPath id="a5edc6ab59"><path d="M 1 0.929688 L 16 0.929688 L 16 11 L 1 11 Z M 1 0.929688 " clip-rule="nonzero"/></clipPath><clipPath id="14f0981e06"><path d="M 0.351562 10 L 16.851562 10 L 16.851562 11.429688 L 0.351562 11.429688 Z M 0.351562 10 " clip-rule="nonzero"/></clipPath><clipPath id="e8f5105c28"><path d="M 9 2 L 16.851562 2 L 16.851562 9 L 9 9 Z M 9 2 " clip-rule="nonzero"/></clipPath><clipPath id="a5bf1658a8"><rect x="0" width="17" y="0" height="12"/></clipPath><mask id="618a73de43"><g filter="url(#a15105d107)"><rect x="-9.75" width="117" fill="#000000" y="-7.5" height="89.999996" fill-opacity="0.098"/></g></mask><clipPath id="f8e931bab5"><path d="M 7 7 L 16.25 7 L 16.25 16.679688 L 7 16.679688 Z M 7 7 " clip-rule="nonzero"/></clipPath><clipPath id="ae6ca25265"><path d="M 0.5 0.929688 L 9 0.929688 L 9 16.679688 L 0.5 16.679688 Z M 0.5 0.929688 " clip-rule="nonzero"/></clipPath><clipPath id="c7f0a349e4"><rect x="0" width="17" y="0" height="17"/></clipPath><mask id="28d086aed5"><g filter="url(#a15105d107)"><rect x="-9.75" width="117" fill="#000000" y="-7.5" height="89.999996" fill-opacity="0.098"/></g></mask><clipPath id="fe104003a0"><path d="M 0.5 0.550781 L 20 0.550781 L 20 20.050781 L 0.5 20.050781 Z M 0.5 0.550781 " clip-rule="nonzero"/></clipPath><clipPath id="bb54b3e835"><rect x="0" width="21" y="0" height="21"/></clipPath><mask id="58a7e50871"><g filter="url(#a15105d107)"><rect x="-9.75" width="117" fill="#000000" y="-7.5" height="89.999996" fill-opacity="0.098"/></g></mask><clipPath id="71939c301e"><path d="M 4 0.570312 L 18 0.570312 L 18 12.570312 L 4 12.570312 Z M 4 0.570312 " clip-rule="nonzero"/></clipPath><clipPath id="a8adeb98cf"><path d="M 17 2 L 24.691406 2 L 24.691406 12.570312 L 17 12.570312 Z M 17 2 " clip-rule="nonzero"/></clipPath><clipPath id="cb003f0c7d"><path d="M 3 0.570312 L 5 0.570312 L 5 2 L 3 2 Z M 3 0.570312 " clip-rule="nonzero"/></clipPath><clipPath id="d271f641d2"><path d="M 2 0.570312 L 3 0.570312 L 3 2 L 2 2 Z M 2 0.570312 " clip-rule="nonzero"/></clipPath><clipPath id="91c5ac6db7"><path d="M 0.691406 4 L 2 4 L 2 6 L 0.691406 6 Z M 0.691406 4 " clip-rule="nonzero"/></clipPath><clipPath id="9b9bfb1c59"><rect x="0" width="26" y="0" height="14"/></clipPath><mask id="75d81d0a41"><g filter="url(#a15105d107)"><rect x="-9.75" width="117" fill="#000000" y="-7.5" height="89.999996" fill-opacity="0.098"/></g></mask><clipPath id="9f8ec5fbca"><path d="M 0.402344 0.929688 L 16 0.929688 L 16 12 L 0.402344 12 Z M 0.402344 0.929688 " clip-rule="nonzero"/></clipPath><clipPath id="1c6a0eda37"><path d="M 11 9 L 16.902344 9 L 16.902344 16.679688 L 11 16.679688 Z M 11 9 " clip-rule="nonzero"/></clipPath><clipPath id="4b76233d0a"><path d="M 1 2 L 16.902344 2 L 16.902344 14 L 1 14 Z M 1 2 " clip-rule="nonzero"/></clipPath><clipPath id="e779bd0fcc"><rect x="0" width="18" y="0" height="17"/></clipPath><mask id="9be676274f"><g filter="url(#a15105d107)"><rect x="-9.75" width="117" fill="#000000" y="-7.5" height="89.999996" fill-opacity="0.098"/></g></mask><clipPath id="9441485a53"><path d="M 0.382812 0.6875 L 16.882812 0.6875 L 16.882812 14 L 0.382812 14 Z M 0.382812 0.6875 " clip-rule="nonzero"/></clipPath><clipPath id="d804499701"><path d="M 6 13 L 9 13 L 9 16.289062 L 6 16.289062 Z M 6 13 " clip-rule="nonzero"/></clipPath><clipPath id="a7f9770589"><path d="M 12 13 L 16 13 L 16 16.289062 L 12 16.289062 Z M 12 13 " clip-rule="nonzero"/></clipPath><clipPath id="9c8342155c"><rect x="0" width="18" y="0" height="17"/></clipPath><mask id="d41d05553a"><g filter="url(#a15105d107)"><rect x="-9.75" width="117" fill="#000000" y="-7.5" height="89.999996" fill-opacity="0.098"/></g></mask><clipPath id="2ffba4a5ef"><path d="M 3.671875 5.914062 L 10.992188 5.914062 L 10.992188 14.425781 L 3.671875 14.425781 Z M 3.671875 5.914062 " clip-rule="nonzero"/></clipPath><clipPath id="283fd2aacb"><path d="M 10.625 5.453125 L 16.050781 5.453125 L 16.050781 14.425781 L 10.625 14.425781 Z M 10.625 5.453125 " clip-rule="nonzero"/></clipPath><clipPath id="a52547f65f"><path d="M 0.835938 4 L 11 4 L 11 9 L 0.835938 9 Z M 0.835938 4 " clip-rule="nonzero"/></clipPath><clipPath id="888e0779bc"><path d="M 10.675781 2.890625 L 18.835938 2.890625 L 18.835938 8.140625 L 10.675781 8.140625 Z M 10.675781 2.890625 " clip-rule="nonzero"/></clipPath><clipPath id="f9a95b9eee"><path d="M 1 0.925781 L 10 0.925781 L 10 6 L 1 6 Z M 1 0.925781 " clip-rule="nonzero"/></clipPath><clipPath id="d606b3f910"><rect x="0" width="20" y="0" height="16"/></clipPath></defs><g clip-path="url(#bf1a36e736)"><path fill="#ffffff" d="M 0 0.191406 L 97.5 0.191406 L 97.5 82.691406 L 0 82.691406 Z M 0 0.191406 " fill-opacity="1" fill-rule="nonzero"/><path fill="#ffffff" d="M 0 0.191406 L 97.5 0.191406 L 97.5 75.191406 L 0 75.191406 Z M 0 0.191406 " fill-opacity="1" fill-rule="nonzero"/><path fill="#c1ebe2" d="M 0 0.191406 L 97.5 0.191406 L 97.5 75.191406 L 0 75.191406 Z M 0 0.191406 " fill-opacity="1" fill-rule="nonzero"/></g><g mask="url(#e364376ee4)"><g transform="matrix(1, 0, 0, 1, 29, 22)"><g clip-path="url(#804f3738db)"><path fill="#000000" d="M 7.242188 6.355469 L 4.925781 6.355469 L 4.488281 4.980469 L 7.683594 4.980469 Z M 8.246094 4.582031 C 8.195312 4.515625 8.117188 4.480469 8.035156 4.480469 L 7.550781 4.480469 C 7.546875 4.472656 7.542969 4.464844 7.539062 4.457031 L 7.007812 3.492188 C 6.941406 3.371094 6.78125 3.324219 6.65625 3.386719 C 6.527344 3.453125 6.480469 3.605469 6.546875 3.726562 L 6.960938 4.480469 L 5.210938 4.480469 L 5.625 3.726562 C 5.691406 3.605469 5.644531 3.453125 5.515625 3.386719 C 5.390625 3.324219 5.230469 3.371094 5.164062 3.492188 L 4.632812 4.457031 C 4.628906 4.464844 4.625 4.472656 4.621094 4.480469 L 4.132812 4.480469 C 4.050781 4.480469 3.972656 4.515625 3.921875 4.582031 C 3.875 4.644531 3.859375 4.730469 3.882812 4.804688 L 4.484375 6.683594 C 4.519531 6.789062 4.621094 6.859375 4.734375 6.859375 L 7.433594 6.859375 C 7.550781 6.859375 7.652344 6.789062 7.683594 6.683594 L 8.285156 4.804688 C 8.308594 4.730469 8.292969 4.644531 8.246094 4.582031 " fill-opacity="1" fill-rule="nonzero"/><path fill="#000000" d="M 6.085938 6.253906 C 6.230469 6.253906 6.34375 6.144531 6.34375 6.003906 L 6.34375 5.335938 C 6.34375 5.195312 6.230469 5.082031 6.085938 5.082031 C 5.941406 5.082031 5.824219 5.195312 5.824219 5.335938 L 5.824219 6.003906 C 5.824219 6.144531 5.941406 6.253906 6.085938 6.253906 " fill-opacity="1" fill-rule="nonzero"/><path fill="#000000" d="M 4.925781 5.417969 L 5.117188 6.0625 C 5.148438 6.171875 5.253906 6.242188 5.367188 6.242188 C 5.390625 6.242188 5.414062 6.238281 5.441406 6.234375 C 5.578125 6.195312 5.660156 6.054688 5.617188 5.921875 L 5.425781 5.277344 C 5.386719 5.144531 5.242188 5.066406 5.105469 5.105469 C 4.964844 5.144531 4.886719 5.28125 4.925781 5.417969 " fill-opacity="1" fill-rule="nonzero"/><path fill="#000000" d="M 6.730469 6.234375 C 6.753906 6.238281 6.777344 6.242188 6.800781 6.242188 C 6.914062 6.242188 7.019531 6.171875 7.054688 6.0625 L 7.246094 5.417969 C 7.285156 5.28125 7.203125 5.144531 7.066406 5.105469 C 6.925781 5.066406 6.78125 5.144531 6.742188 5.277344 L 6.550781 5.921875 C 6.511719 6.054688 6.589844 6.195312 6.730469 6.234375 " fill-opacity="1" fill-rule="nonzero"/><g clip-path="url(#ea6b52ae4f)"><path fill="#000000" d="M 4.921875 1.265625 C 2.71875 1.265625 0.925781 2.988281 0.925781 5.109375 C 0.925781 7.230469 2.71875 8.953125 4.921875 8.953125 L 34.574219 8.953125 C 36.777344 8.953125 38.570312 7.230469 38.570312 5.109375 C 38.570312 2.988281 36.777344 1.265625 34.574219 1.265625 Z M 34.574219 9.605469 L 4.921875 9.605469 C 2.347656 9.605469 0.25 7.589844 0.25 5.109375 C 0.25 2.628906 2.347656 0.613281 4.921875 0.613281 L 34.574219 0.613281 C 37.152344 0.613281 39.246094 2.628906 39.246094 5.109375 C 39.246094 7.589844 37.152344 9.605469 34.574219 9.605469 " fill-opacity="1" fill-rule="nonzero"/></g></g></g></g><g mask="url(#9300779d3a)"><g transform="matrix(1, 0, 0, 1, 40, 31)"><g clip-path="url(#ca3f89c4ed)"><g clip-path="url(#74af7d310d)"><path fill="#000000" d="M 16.191406 6.074219 L 1.304688 6.074219 C 0.859375 6.074219 0.496094 6.429688 0.496094 6.871094 L 0.496094 14.417969 C 0.496094 14.859375 0.859375 15.214844 1.304688 15.214844 L 16.191406 15.214844 C 16.636719 15.214844 17 14.859375 17 14.417969 L 17 6.871094 C 17 6.429688 16.636719 6.074219 16.191406 6.074219 Z M 16.328125 14.417969 C 16.328125 14.492188 16.269531 14.550781 16.191406 14.550781 L 1.304688 14.550781 C 1.230469 14.550781 1.167969 14.492188 1.167969 14.417969 L 1.167969 6.871094 C 1.167969 6.796875 1.230469 6.734375 1.304688 6.734375 L 16.191406 6.734375 C 16.269531 6.734375 16.328125 6.796875 16.328125 6.871094 Z M 16.328125 14.417969 " fill-opacity="1" fill-rule="nonzero"/></g><path fill="#000000" d="M 15.183594 13.96875 L 2.265625 13.96875 C 2 13.96875 1.785156 13.753906 1.785156 13.492188 L 1.785156 7.796875 C 1.785156 7.53125 2 7.320312 2.265625 7.320312 L 3.332031 7.320312 L 3.332031 7.78125 L 2.265625 7.78125 C 2.257812 7.78125 2.253906 7.789062 2.253906 7.796875 L 2.253906 13.492188 C 2.253906 13.5 2.257812 13.507812 2.265625 13.507812 L 15.183594 13.507812 C 15.191406 13.507812 15.199219 13.5 15.199219 13.492188 L 15.199219 7.796875 C 15.199219 7.789062 15.191406 7.78125 15.183594 7.78125 L 14.023438 7.78125 L 14.023438 7.320312 L 15.183594 7.320312 C 15.449219 7.320312 15.664062 7.53125 15.664062 7.796875 L 15.664062 13.492188 C 15.664062 13.753906 15.449219 13.96875 15.183594 13.96875 Z M 15.183594 13.96875 " fill-opacity="1" fill-rule="nonzero"/><path fill="#000000" d="M 5.21875 7.253906 L 5.496094 6.734375 L 4.738281 6.734375 L 4.527344 7.125 C 4.207031 7.21875 3.972656 7.515625 3.972656 7.863281 C 3.972656 8.289062 4.320312 8.632812 4.746094 8.632812 C 5.175781 8.632812 5.523438 8.289062 5.523438 7.863281 C 5.523438 7.617188 5.40625 7.394531 5.21875 7.253906 Z M 4.746094 7.96875 C 4.6875 7.96875 4.640625 7.921875 4.640625 7.863281 C 4.640625 7.804688 4.6875 7.757812 4.746094 7.757812 C 4.804688 7.757812 4.855469 7.804688 4.855469 7.863281 C 4.855469 7.921875 4.804688 7.96875 4.746094 7.96875 Z M 4.746094 7.96875 " fill-opacity="1" fill-rule="nonzero"/><path fill="#000000" d="M 8.296875 1.511719 L 5.851562 6.074219 L 5.09375 6.074219 L 7.707031 1.199219 C 7.792969 1.039062 7.996094 0.976562 8.160156 1.0625 C 8.324219 1.148438 8.386719 1.347656 8.296875 1.511719 Z M 8.296875 1.511719 " fill-opacity="1" fill-rule="nonzero"/><path fill="#000000" d="M 12.511719 6.074219 L 11.773438 6.074219 L 9.605469 1.496094 C 9.527344 1.328125 9.597656 1.132812 9.765625 1.054688 C 9.933594 0.976562 10.132812 1.046875 10.210938 1.214844 Z M 12.511719 6.074219 " fill-opacity="1" fill-rule="nonzero"/><path fill="#000000" d="M 13.015625 7.128906 L 12.828125 6.734375 L 12.085938 6.734375 L 12.328125 7.242188 C 12.132812 7.382812 12.007812 7.609375 12.007812 7.863281 C 12.007812 8.289062 12.355469 8.632812 12.785156 8.632812 C 13.214844 8.632812 13.5625 8.289062 13.5625 7.863281 C 13.5625 7.519531 13.332031 7.226562 13.015625 7.128906 Z M 12.785156 7.96875 C 12.726562 7.96875 12.679688 7.921875 12.679688 7.863281 C 12.679688 7.804688 12.726562 7.757812 12.785156 7.757812 C 12.84375 7.761719 12.890625 7.804688 12.890625 7.863281 C 12.890625 7.921875 12.84375 7.96875 12.785156 7.96875 Z M 12.785156 7.96875 " fill-opacity="1" fill-rule="nonzero"/><path fill="#000000" d="M 3.355469 10.398438 C 3.355469 9.679688 3.914062 9.152344 4.675781 9.152344 C 5.433594 9.152344 5.992188 9.679688 5.992188 10.398438 C 5.992188 11.117188 5.433594 11.640625 4.675781 11.640625 C 3.914062 11.640625 3.355469 11.113281 3.355469 10.398438 Z M 5.535156 10.398438 C 5.535156 9.902344 5.167969 9.546875 4.675781 9.546875 C 4.179688 9.546875 3.816406 9.902344 3.816406 10.398438 C 3.816406 10.890625 4.179688 11.246094 4.675781 11.246094 C 5.167969 11.246094 5.535156 10.890625 5.535156 10.398438 Z M 5.535156 10.398438 " fill-opacity="1" fill-rule="nonzero"/><path fill="#000000" d="M 8.523438 10.046875 C 8.523438 10.578125 8.125 10.910156 7.480469 10.910156 L 6.929688 10.910156 L 6.929688 11.605469 L 6.472656 11.605469 L 6.472656 9.1875 L 7.480469 9.1875 C 8.125 9.1875 8.523438 9.511719 8.523438 10.046875 Z M 8.066406 10.046875 C 8.066406 9.742188 7.859375 9.566406 7.460938 9.566406 L 6.929688 9.566406 L 6.929688 10.527344 L 7.460938 10.527344 C 7.859375 10.527344 8.066406 10.351562 8.066406 10.046875 Z M 8.066406 10.046875 " fill-opacity="1" fill-rule="nonzero"/><path fill="#000000" d="M 10.8125 11.230469 L 10.8125 11.605469 L 8.976562 11.605469 L 8.976562 9.1875 L 10.761719 9.1875 L 10.761719 9.5625 L 9.429688 9.5625 L 9.429688 10.191406 L 10.613281 10.191406 L 10.613281 10.5625 L 9.429688 10.5625 L 9.429688 11.230469 Z M 10.8125 11.230469 " fill-opacity="1" fill-rule="nonzero"/><path fill="#000000" d="M 13.492188 9.1875 L 13.492188 11.609375 L 13.117188 11.609375 L 11.769531 9.96875 L 11.769531 11.609375 L 11.320312 11.609375 L 11.320312 9.1875 L 11.691406 9.1875 L 13.042969 10.824219 L 13.042969 9.1875 Z M 13.492188 9.1875 " fill-opacity="1" fill-rule="nonzero"/></g></g></g><g mask="url(#b9d447974e)"><g transform="matrix(1, 0, 0, 1, 8, 24)"><g clip-path="url(#aec7cbad72)"><g clip-path="url(#d6db0d7f14)"><path fill="#000000" d="M 11.976562 5.289062 L 11.964844 4.800781 L 11.921875 2.5625 C 11.917969 2.386719 11.832031 2.226562 11.6875 2.121094 C 11.542969 2.015625 11.367188 1.984375 11.195312 2.035156 L 10.1875 2.335938 L 9.46875 2.550781 L 6.722656 3.371094 C 6.609375 3.40625 6.507812 3.476562 6.4375 3.574219 L 1.113281 10.949219 C 1.027344 11.070312 0.992188 11.21875 1.019531 11.367188 C 1.042969 11.507812 1.125 11.636719 1.246094 11.722656 L 5.808594 14.996094 C 5.90625 15.066406 6.019531 15.105469 6.136719 15.105469 C 6.164062 15.105469 6.195312 15.101562 6.222656 15.097656 C 6.371094 15.074219 6.5 14.996094 6.585938 14.875 L 11.910156 7.5 C 11.980469 7.40625 12.015625 7.289062 12.011719 7.171875 Z M 11.496094 7.203125 L 6.171875 14.582031 C 6.164062 14.589844 6.15625 14.59375 6.144531 14.59375 C 6.136719 14.597656 6.121094 14.597656 6.105469 14.585938 L 1.542969 11.308594 C 1.527344 11.296875 1.519531 11.285156 1.519531 11.277344 C 1.519531 11.265625 1.519531 11.253906 1.527344 11.246094 L 6.851562 3.871094 C 6.855469 3.863281 6.863281 3.859375 6.871094 3.859375 L 11.34375 2.523438 C 11.347656 2.519531 11.351562 2.519531 11.355469 2.519531 C 11.371094 2.519531 11.382812 2.527344 11.390625 2.53125 C 11.398438 2.539062 11.410156 2.550781 11.410156 2.570312 L 11.457031 4.910156 L 11.46875 5.398438 L 11.503906 7.179688 C 11.503906 7.1875 11.5 7.195312 11.496094 7.203125 Z M 11.496094 7.203125 " fill-opacity="1" fill-rule="nonzero"/></g><path fill="#000000" d="M 9.875 5.148438 C 9.75 4.796875 9.410156 4.546875 9.015625 4.546875 C 8.515625 4.546875 8.105469 4.953125 8.105469 5.453125 C 8.105469 5.957031 8.515625 6.363281 9.015625 6.363281 C 9.460938 6.363281 9.832031 6.046875 9.914062 5.625 C 9.921875 5.570312 9.929688 5.511719 9.929688 5.453125 C 9.929688 5.347656 9.910156 5.242188 9.875 5.148438 Z M 9.015625 5.886719 C 8.777344 5.886719 8.585938 5.691406 8.585938 5.453125 C 8.585938 5.21875 8.777344 5.023438 9.015625 5.023438 C 9.15625 5.023438 9.28125 5.089844 9.359375 5.191406 C 9.140625 5.210938 9.011719 5.214844 9.007812 5.214844 C 8.875 5.222656 8.773438 5.332031 8.777344 5.464844 C 8.78125 5.59375 8.890625 5.695312 9.015625 5.695312 C 9.019531 5.695312 9.023438 5.695312 9.027344 5.695312 C 9.042969 5.695312 9.175781 5.6875 9.390625 5.671875 C 9.316406 5.800781 9.175781 5.886719 9.015625 5.886719 Z M 9.015625 5.886719 " fill-opacity="1" fill-rule="nonzero"/><path fill="#000000" d="M 9.914062 5.625 C 9.921875 5.570312 9.929688 5.511719 9.929688 5.453125 C 9.929688 5.347656 9.910156 5.242188 9.875 5.148438 C 10.3125 5.101562 10.875 5.027344 11.457031 4.910156 L 11.46875 5.398438 C 10.886719 5.507812 10.34375 5.582031 9.914062 5.625 Z M 9.914062 5.625 " fill-opacity="1" fill-rule="nonzero"/><g clip-path="url(#dd36a46d95)"><path fill="#000000" d="M 15.035156 3.578125 C 14.644531 4.332031 13.617188 4.910156 11.976562 5.289062 L 11.964844 4.800781 C 13.386719 4.457031 14.296875 3.960938 14.609375 3.359375 C 14.835938 2.921875 14.753906 2.417969 14.363281 1.820312 C 13.828125 1.003906 13.238281 0.597656 12.609375 0.609375 C 11.585938 0.632812 10.644531 1.714844 10.1875 2.335938 L 9.46875 2.550781 C 9.472656 2.542969 9.476562 2.53125 9.484375 2.523438 C 9.496094 2.5 9.835938 1.933594 10.378906 1.359375 C 10.699219 1.015625 11.027344 0.738281 11.351562 0.539062 C 11.773438 0.277344 12.191406 0.140625 12.597656 0.132812 C 13.402344 0.117188 14.132812 0.59375 14.765625 1.558594 C 15.011719 1.9375 15.15625 2.300781 15.199219 2.644531 C 15.242188 2.972656 15.1875 3.289062 15.035156 3.578125 Z M 15.035156 3.578125 " fill-opacity="1" fill-rule="nonzero"/></g><path fill="#000000" d="M 4.703125 12.472656 L 4.609375 12.289062 C 4.777344 12.261719 4.972656 12.140625 5.105469 11.972656 C 5.28125 11.742188 5.269531 11.578125 5.15625 11.488281 C 4.832031 11.234375 4.410156 12.195312 3.917969 11.8125 C 3.714844 11.65625 3.664062 11.363281 3.933594 11.015625 C 4.054688 10.859375 4.222656 10.730469 4.382812 10.679688 L 4.488281 10.859375 C 4.324219 10.917969 4.1875 11.023438 4.097656 11.140625 C 3.921875 11.363281 3.941406 11.535156 4.054688 11.621094 C 4.378906 11.875 4.800781 10.917969 5.289062 11.292969 C 5.492188 11.449219 5.539062 11.746094 5.265625 12.097656 C 5.109375 12.296875 4.886719 12.445312 4.703125 12.472656 Z M 4.703125 12.472656 " fill-opacity="1" fill-rule="nonzero"/><path fill="#000000" d="M 6.1875 10.199219 L 5.640625 10.902344 L 5.859375 11.304688 L 5.707031 11.5 L 4.851562 9.871094 L 4.996094 9.6875 L 6.789062 10.113281 L 6.632812 10.3125 Z M 5.984375 10.148438 L 5.113281 9.929688 L 5.542969 10.71875 Z M 5.984375 10.148438 " fill-opacity="1" fill-rule="nonzero"/><path fill="#000000" d="M 5.617188 8.890625 L 5.765625 8.699219 L 6.925781 9.601562 L 7.484375 8.886719 L 7.648438 9.011719 L 6.941406 9.917969 Z M 5.617188 8.890625 " fill-opacity="1" fill-rule="nonzero"/><path fill="#000000" d="M 8.398438 7.710938 L 8.5625 7.835938 L 7.816406 8.796875 L 6.492188 7.769531 L 7.21875 6.835938 L 7.382812 6.964844 L 6.804688 7.707031 L 7.210938 8.023438 L 7.726562 7.359375 L 7.886719 7.484375 L 7.371094 8.148438 L 7.796875 8.480469 Z M 8.398438 7.710938 " fill-opacity="1" fill-rule="nonzero"/></g></g></g><g mask="url(#12b967da46)"><g transform="matrix(1, 0, 0, 1, 71, 2)"><g clip-path="url(#a5bf1658a8)"><g clip-path="url(#a5edc6ab59)"><path fill="#000000" d="M 8.65625 1.214844 C 8.761719 1.214844 8.847656 1.300781 8.847656 1.410156 C 8.847656 1.519531 8.761719 1.605469 8.65625 1.605469 C 8.546875 1.605469 8.460938 1.519531 8.460938 1.410156 C 8.460938 1.300781 8.546875 1.214844 8.65625 1.214844 Z M 14.769531 9.398438 L 14.769531 9.472656 C 14.769531 9.570312 14.691406 9.648438 14.597656 9.648438 L 2.609375 9.648438 C 2.511719 9.648438 2.4375 9.570312 2.4375 9.472656 L 2.4375 1.941406 C 2.4375 1.847656 2.511719 1.765625 2.609375 1.765625 L 14.597656 1.765625 C 14.691406 1.765625 14.769531 1.847656 14.769531 1.941406 L 14.769531 3.136719 L 15.589844 3.136719 L 15.589844 1.941406 C 15.589844 1.382812 15.144531 0.929688 14.597656 0.929688 L 2.609375 0.929688 C 2.058594 0.929688 1.613281 1.382812 1.613281 1.941406 L 1.613281 9.472656 C 1.613281 10.03125 2.058594 10.484375 2.609375 10.484375 L 14.597656 10.484375 C 15.125 10.484375 15.554688 10.066406 15.589844 9.535156 C 15.5 9.566406 15.410156 9.582031 15.3125 9.582031 C 15.109375 9.582031 14.921875 9.511719 14.769531 9.398438 " fill-opacity="1" fill-rule="nonzero"/></g><g clip-path="url(#14f0981e06)"><path fill="#000000" d="M 11.199219 10.671875 C 11.199219 10.851562 11.058594 10.996094 10.882812 10.996094 L 6.320312 10.996094 C 6.148438 10.996094 6.007812 10.851562 6.007812 10.671875 L 6.007812 10.632812 L 0.367188 10.632812 C 0.367188 11.074219 0.71875 11.429688 1.152344 11.429688 L 16.054688 11.429688 C 16.484375 11.429688 16.835938 11.074219 16.835938 10.632812 L 11.199219 10.632812 L 11.199219 10.671875 " fill-opacity="1" fill-rule="nonzero"/></g><g clip-path="url(#e8f5105c28)"><path fill="#000000" d="M 15.886719 6.746094 L 12.558594 6.746094 L 12.054688 4.058594 L 16.390625 4.058594 Z M 16.617188 3.679688 L 11.980469 3.679688 L 11.871094 3.09375 C 11.792969 2.683594 11.441406 2.386719 11.03125 2.386719 L 9.628906 2.386719 C 9.527344 2.386719 9.441406 2.472656 9.441406 2.578125 C 9.441406 2.683594 9.527344 2.769531 9.628906 2.769531 L 11.03125 2.769531 C 11.261719 2.769531 11.460938 2.933594 11.503906 3.164062 L 12.191406 6.804688 C 11.957031 6.910156 11.796875 7.148438 11.796875 7.421875 C 11.796875 7.796875 12.09375 8.097656 12.460938 8.097656 L 16.039062 8.097656 C 16.144531 8.097656 16.226562 8.011719 16.226562 7.90625 C 16.226562 7.804688 16.144531 7.71875 16.039062 7.71875 L 12.460938 7.71875 C 12.300781 7.71875 12.171875 7.585938 12.171875 7.421875 C 12.171875 7.261719 12.300781 7.128906 12.460938 7.128906 L 16.039062 7.128906 C 16.046875 7.128906 16.050781 7.128906 16.058594 7.125 L 16.066406 7.125 C 16.070312 7.125 16.074219 7.125 16.074219 7.125 C 16.078125 7.125 16.082031 7.121094 16.082031 7.121094 C 16.085938 7.121094 16.089844 7.121094 16.09375 7.121094 C 16.09375 7.121094 16.097656 7.117188 16.101562 7.117188 C 16.101562 7.117188 16.105469 7.117188 16.109375 7.113281 C 16.113281 7.113281 16.113281 7.113281 16.117188 7.109375 C 16.121094 7.109375 16.121094 7.109375 16.125 7.105469 L 16.132812 7.101562 C 16.136719 7.101562 16.136719 7.101562 16.140625 7.097656 L 16.144531 7.09375 C 16.148438 7.089844 16.152344 7.089844 16.15625 7.085938 L 16.160156 7.085938 C 16.164062 7.082031 16.167969 7.078125 16.171875 7.074219 L 16.175781 7.070312 C 16.179688 7.066406 16.179688 7.0625 16.183594 7.058594 L 16.1875 7.054688 C 16.191406 7.050781 16.191406 7.050781 16.195312 7.046875 L 16.199219 7.039062 C 16.199219 7.035156 16.203125 7.035156 16.203125 7.03125 L 16.207031 7.023438 C 16.207031 7.023438 16.210938 7.019531 16.210938 7.015625 C 16.210938 7.011719 16.214844 7.011719 16.214844 7.007812 C 16.214844 7.003906 16.214844 7.003906 16.21875 7 C 16.21875 6.996094 16.21875 6.996094 16.21875 6.992188 C 16.21875 6.988281 16.222656 6.984375 16.222656 6.984375 C 16.222656 6.980469 16.222656 6.976562 16.222656 6.972656 L 16.800781 3.90625 C 16.8125 3.847656 16.796875 3.792969 16.761719 3.746094 C 16.726562 3.703125 16.671875 3.679688 16.617188 3.679688 " fill-opacity="1" fill-rule="nonzero"/></g><path fill="#000000" d="M 13.011719 8.261719 C 12.800781 8.261719 12.628906 8.433594 12.628906 8.652344 C 12.628906 8.867188 12.800781 9.039062 13.011719 9.039062 C 13.222656 9.039062 13.394531 8.867188 13.394531 8.652344 C 13.394531 8.433594 13.222656 8.261719 13.011719 8.261719 " fill-opacity="1" fill-rule="nonzero"/><path fill="#000000" d="M 15.3125 8.261719 C 15.101562 8.261719 14.929688 8.433594 14.929688 8.652344 C 14.929688 8.867188 15.101562 9.039062 15.3125 9.039062 C 15.523438 9.039062 15.695312 8.867188 15.695312 8.652344 C 15.695312 8.433594 15.523438 8.261719 15.3125 8.261719 " fill-opacity="1" fill-rule="nonzero"/><path fill="#000000" d="M 8.421875 4.035156 L 10.796875 4.035156 C 10.902344 4.035156 10.984375 3.949219 10.984375 3.84375 C 10.984375 3.738281 10.902344 3.652344 10.796875 3.652344 L 8.421875 3.652344 C 8.320312 3.652344 8.238281 3.738281 8.238281 3.84375 C 8.238281 3.949219 8.320312 4.035156 8.421875 4.035156 " fill-opacity="1" fill-rule="nonzero"/><path fill="#000000" d="M 8.144531 4.949219 L 10.890625 4.949219 C 10.992188 4.949219 11.078125 4.863281 11.078125 4.757812 C 11.078125 4.652344 10.992188 4.566406 10.890625 4.566406 L 8.144531 4.566406 C 8.039062 4.566406 7.957031 4.652344 7.957031 4.757812 C 7.957031 4.863281 8.039062 4.949219 8.144531 4.949219 " fill-opacity="1" fill-rule="nonzero"/><path fill="#000000" d="M 11.171875 5.671875 C 11.171875 5.566406 11.085938 5.480469 10.984375 5.480469 L 7.863281 5.480469 C 7.757812 5.480469 7.675781 5.566406 7.675781 5.671875 C 7.675781 5.777344 7.757812 5.863281 7.863281 5.863281 L 10.984375 5.863281 C 11.085938 5.863281 11.171875 5.777344 11.171875 5.671875 " fill-opacity="1" fill-rule="nonzero"/><path fill="#000000" d="M 11.265625 6.585938 C 11.265625 6.480469 11.179688 6.394531 11.078125 6.394531 L 8.796875 6.394531 C 8.695312 6.394531 8.609375 6.480469 8.609375 6.585938 C 8.609375 6.691406 8.695312 6.777344 8.796875 6.777344 L 11.078125 6.777344 C 11.179688 6.777344 11.265625 6.691406 11.265625 6.585938 " fill-opacity="1" fill-rule="nonzero"/><path fill="#000000" d="M 11.171875 7.308594 L 9.636719 7.308594 C 9.535156 7.308594 9.453125 7.394531 9.453125 7.5 C 9.453125 7.605469 9.535156 7.6875 9.636719 7.6875 L 11.171875 7.6875 C 11.273438 7.6875 11.359375 7.605469 11.359375 7.5 C 11.359375 7.394531 11.273438 7.308594 11.171875 7.308594 " fill-opacity="1" fill-rule="nonzero"/></g></g></g><g mask="url(#618a73de43)"><g transform="matrix(1, 0, 0, 1, 7, 2)"><g clip-path="url(#c7f0a349e4)"><g clip-path="url(#f8e931bab5)"><path fill="#000000" d="M 8.730469 7.804688 C 8.125 7.796875 7.625 8.273438 7.613281 8.878906 C 7.609375 9.074219 7.65625 9.265625 7.753906 9.4375 C 8.097656 10.046875 8.460938 10.644531 8.84375 11.226562 L 8.472656 11.484375 C 8.359375 11.566406 8.320312 11.710938 8.382812 11.835938 L 9.476562 14.117188 C 9.511719 14.1875 9.574219 14.242188 9.652344 14.265625 L 11.566406 14.804688 L 11.425781 14.882812 L 12.394531 16.679688 L 16.25 14.605469 L 15.28125 12.808594 L 15.058594 12.925781 C 15.105469 12.636719 15.113281 12.34375 15.082031 12.058594 C 14.921875 10.53125 13.976562 9.203125 12.59375 8.542969 C 12.179688 8.34375 11.683594 8.480469 11.425781 8.859375 C 11.023438 8.632812 10.511719 8.734375 10.222656 9.097656 C 10.015625 8.757812 9.777344 8.441406 9.507812 8.15625 C 9.304688 7.941406 9.023438 7.8125 8.730469 7.804688 Z M 8.714844 8.367188 C 8.714844 8.367188 8.714844 8.367188 8.71875 8.367188 C 8.859375 8.371094 8.996094 8.433594 9.09375 8.539062 C 9.492188 8.964844 9.820312 9.453125 10.066406 9.980469 C 10.128906 10.121094 10.296875 10.183594 10.4375 10.117188 C 10.5625 10.058594 10.625 9.917969 10.589844 9.789062 C 10.535156 9.582031 10.65625 9.371094 10.863281 9.316406 C 11.035156 9.273438 11.21875 9.351562 11.304688 9.507812 C 11.375 9.644531 11.546875 9.699219 11.683594 9.625 C 11.773438 9.574219 11.832031 9.480469 11.832031 9.378906 C 11.832031 9.175781 11.992188 9.015625 12.195312 9.015625 C 12.25 9.015625 12.304688 9.027344 12.351562 9.050781 C 13.558594 9.625 14.378906 10.785156 14.523438 12.117188 C 14.566406 12.511719 14.519531 12.910156 14.390625 13.285156 L 12.28125 14.425781 L 9.929688 13.757812 L 8.988281 11.808594 L 9.15625 11.695312 C 9.339844 11.964844 9.527344 12.234375 9.71875 12.5 C 9.808594 12.625 9.984375 12.652344 10.113281 12.5625 C 10.234375 12.472656 10.265625 12.296875 10.175781 12.167969 C 9.472656 11.207031 8.828125 10.199219 8.242188 9.160156 C 8.101562 8.90625 8.191406 8.582031 8.445312 8.4375 C 8.527344 8.394531 8.621094 8.367188 8.714844 8.367188 Z M 15.050781 13.570312 L 15.488281 14.375 L 12.621094 15.917969 L 12.1875 15.113281 L 15.050781 13.570312 " fill-opacity="1" fill-rule="nonzero"/></g><g clip-path="url(#ae6ca25265)"><path fill="#000000" d="M 1.625 0.929688 C 1.003906 0.929688 0.5 1.433594 0.5 2.054688 L 0.5 15.554688 C 0.5 16.175781 1.003906 16.679688 1.625 16.679688 L 7.25 16.679688 C 7.871094 16.679688 8.375 16.175781 8.375 15.554688 L 8.375 13.125 L 7.875 12.082031 C 7.847656 12.023438 7.824219 11.964844 7.8125 11.90625 L 7.8125 15.554688 C 7.8125 15.867188 7.558594 16.117188 7.25 16.117188 L 1.625 16.117188 C 1.316406 16.117188 1.0625 15.867188 1.0625 15.554688 L 1.0625 2.054688 C 1.0625 1.746094 1.316406 1.492188 1.625 1.492188 L 1.863281 1.492188 C 3.324219 2.808594 5.550781 2.808594 7.011719 1.492188 L 7.25 1.492188 C 7.558594 1.492188 7.8125 1.746094 7.8125 2.054688 L 7.8125 7.507812 C 7.984375 7.394531 8.175781 7.316406 8.375 7.277344 L 8.375 2.054688 C 8.375 1.433594 7.871094 0.929688 7.25 0.929688 Z M 2.820312 1.492188 L 6.054688 1.492188 C 5.050781 2.058594 3.824219 2.058594 2.820312 1.492188 " fill-opacity="1" fill-rule="nonzero"/></g><path fill="#000000" d="M 5.945312 9.085938 C 5.644531 9.097656 5.398438 9.347656 5.398438 9.648438 C 5.398438 9.960938 5.648438 10.214844 5.960938 10.214844 C 6.273438 10.214844 6.523438 9.964844 6.527344 9.652344 C 6.527344 9.652344 6.527344 9.652344 6.527344 9.648438 C 6.527344 9.339844 6.273438 9.085938 5.964844 9.085938 C 5.957031 9.085938 5.953125 9.085938 5.945312 9.085938 Z M 5.960938 9.511719 C 6.035156 9.507812 6.101562 9.566406 6.101562 9.644531 C 6.101562 9.644531 6.101562 9.648438 6.101562 9.648438 C 6.101562 9.726562 6.042969 9.789062 5.960938 9.789062 C 5.886719 9.789062 5.824219 9.726562 5.824219 9.648438 C 5.824219 9.574219 5.882812 9.511719 5.960938 9.511719 " fill-opacity="1" fill-rule="nonzero"/><path fill="#000000" d="M 3.292969 9.085938 C 2.992188 9.097656 2.75 9.347656 2.75 9.648438 C 2.75 9.960938 3.003906 10.210938 3.316406 10.210938 C 3.625 10.207031 3.875 9.957031 3.875 9.648438 C 3.875 9.339844 3.621094 9.085938 3.3125 9.085938 C 3.308594 9.085938 3.300781 9.085938 3.292969 9.085938 Z M 3.308594 9.507812 C 3.386719 9.507812 3.449219 9.566406 3.453125 9.644531 C 3.453125 9.648438 3.453125 9.648438 3.453125 9.648438 C 3.453125 9.726562 3.390625 9.789062 3.3125 9.789062 C 3.234375 9.789062 3.171875 9.730469 3.171875 9.648438 C 3.171875 9.574219 3.234375 9.511719 3.308594 9.507812 " fill-opacity="1" fill-rule="nonzero"/><path fill="#000000" d="M 1.34375 5.429688 L 1.34375 5.992188 L 2.355469 5.992188 L 3.378906 8.804688 L 6.339844 8.804688 L 7.363281 5.992188 L 2.953125 5.992188 L 2.75 5.429688 Z M 3.160156 6.554688 L 3.875 6.554688 L 3.96875 7.117188 L 3.363281 7.117188 Z M 4.445312 6.554688 L 5.273438 6.554688 L 5.179688 7.117188 L 4.539062 7.117188 Z M 5.84375 6.554688 L 6.558594 6.554688 L 6.351562 7.117188 L 5.75 7.117188 Z M 3.570312 7.679688 L 4.0625 7.679688 L 4.15625 8.242188 L 3.773438 8.242188 Z M 4.632812 7.679688 L 5.085938 7.679688 L 4.992188 8.242188 L 4.726562 8.242188 Z M 5.65625 7.679688 L 6.148438 7.679688 L 5.945312 8.242188 L 5.5625 8.242188 L 5.65625 7.679688 " fill-opacity="1" fill-rule="nonzero"/></g></g></g><g mask="url(#28d086aed5)"><g transform="matrix(1, 0, 0, 1, 7, 48)"><g clip-path="url(#bb54b3e835)"><g clip-path="url(#fe104003a0)"><path fill="#000000" d="M 1.148438 19.398438 L 1.148438 5.101562 L 7.976562 5.101562 L 7.976562 11.273438 C 7.976562 11.398438 8.046875 11.515625 8.160156 11.570312 C 8.273438 11.621094 8.410156 11.605469 8.507812 11.523438 L 10.261719 10.074219 L 11.992188 11.523438 C 12.050781 11.574219 12.125 11.601562 12.199219 11.601562 C 12.246094 11.601562 12.292969 11.589844 12.335938 11.570312 C 12.453125 11.515625 12.523438 11.402344 12.523438 11.273438 L 12.523438 5.101562 L 19.351562 5.101562 L 19.351562 19.398438 Z M 2.976562 1.199219 L 8.566406 1.199219 L 8.023438 4.449219 L 1.351562 4.449219 Z M 11.273438 1.199219 L 11.816406 4.449219 L 8.683594 4.449219 L 9.226562 1.199219 Z M 8.625 5.101562 L 11.875 5.101562 L 11.875 10.578125 L 10.472656 9.402344 C 10.351562 9.300781 10.175781 9.300781 10.054688 9.398438 L 8.625 10.585938 Z M 19.148438 4.449219 L 12.476562 4.449219 L 11.933594 1.199219 L 17.523438 1.199219 Z M 19.964844 4.628906 L 18.015625 0.730469 C 17.960938 0.621094 17.847656 0.550781 17.726562 0.550781 L 2.773438 0.550781 C 2.652344 0.550781 2.539062 0.621094 2.484375 0.730469 L 0.535156 4.628906 C 0.511719 4.675781 0.5 4.722656 0.5 4.773438 L 0.5 19.726562 C 0.5 19.902344 0.644531 20.050781 0.824219 20.050781 L 19.675781 20.050781 C 19.855469 20.050781 20 19.902344 20 19.726562 L 20 4.773438 C 20 4.722656 19.988281 4.675781 19.964844 4.628906 " fill-opacity="1" fill-rule="nonzero"/></g><path fill="#000000" d="M 8.949219 17.449219 L 3.101562 17.449219 L 3.101562 14.199219 L 8.949219 14.199219 Z M 9.273438 13.550781 L 2.773438 13.550781 C 2.597656 13.550781 2.449219 13.695312 2.449219 13.875 L 2.449219 17.773438 C 2.449219 17.953125 2.597656 18.101562 2.773438 18.101562 L 9.273438 18.101562 C 9.453125 18.101562 9.601562 17.953125 9.601562 17.773438 L 9.601562 13.875 C 9.601562 13.695312 9.453125 13.550781 9.273438 13.550781 " fill-opacity="1" fill-rule="nonzero"/><path fill="#000000" d="M 5.699219 15.5 L 7.976562 15.5 C 8.152344 15.5 8.300781 15.355469 8.300781 15.175781 C 8.300781 14.996094 8.152344 14.851562 7.976562 14.851562 L 5.699219 14.851562 C 5.519531 14.851562 5.375 14.996094 5.375 15.175781 C 5.375 15.355469 5.519531 15.5 5.699219 15.5 " fill-opacity="1" fill-rule="nonzero"/><path fill="#000000" d="M 5.699219 16.800781 L 7.976562 16.800781 C 8.152344 16.800781 8.300781 16.652344 8.300781 16.476562 C 8.300781 16.296875 8.152344 16.148438 7.976562 16.148438 L 5.699219 16.148438 C 5.519531 16.148438 5.375 16.296875 5.375 16.476562 C 5.375 16.652344 5.519531 16.800781 5.699219 16.800781 " fill-opacity="1" fill-rule="nonzero"/><path fill="#000000" d="M 4.074219 15.5 L 4.398438 15.5 C 4.578125 15.5 4.726562 15.355469 4.726562 15.175781 C 4.726562 14.996094 4.578125 14.851562 4.398438 14.851562 L 4.074219 14.851562 C 3.894531 14.851562 3.75 14.996094 3.75 15.175781 C 3.75 15.355469 3.894531 15.5 4.074219 15.5 " fill-opacity="1" fill-rule="nonzero"/><path fill="#000000" d="M 4.074219 16.800781 L 4.398438 16.800781 C 4.578125 16.800781 4.726562 16.652344 4.726562 16.476562 C 4.726562 16.296875 4.578125 16.148438 4.398438 16.148438 L 4.074219 16.148438 C 3.894531 16.148438 3.75 16.296875 3.75 16.476562 C 3.75 16.652344 3.894531 16.800781 4.074219 16.800781 " fill-opacity="1" fill-rule="nonzero"/></g></g></g><g mask="url(#58a7e50871)"><g transform="matrix(1, 0, 0, 1, 37, 53)"><g clip-path="url(#9b9bfb1c59)"><g clip-path="url(#71939c301e)"><path fill="#000000" d="M 10.519531 0.574219 C 12.285156 0.574219 14.050781 0.574219 15.816406 0.574219 C 16.179688 0.574219 16.507812 0.65625 16.8125 0.863281 C 17.09375 1.058594 17.222656 1.304688 17.21875 1.648438 C 17.207031 3.007812 17.214844 4.371094 17.214844 5.730469 C 17.214844 7.210938 17.214844 8.6875 17.214844 10.164062 C 17.214844 10.257812 17.214844 10.347656 17.214844 10.4375 C 17.214844 10.527344 17.175781 10.582031 17.078125 10.582031 C 16.988281 10.582031 16.894531 10.585938 16.804688 10.585938 L 12.957031 10.585938 C 12.503906 10.585938 12.589844 10.566406 12.464844 10.917969 C 12.238281 11.566406 11.792969 11.980469 11.128906 12.167969 C 10.417969 12.367188 9.519531 12.042969 9.132812 11.425781 C 9.003906 11.21875 8.902344 10.996094 8.828125 10.765625 C 8.78125 10.621094 8.71875 10.578125 8.585938 10.582031 C 8.257812 10.585938 7.929688 10.574219 7.601562 10.585938 C 7.046875 10.605469 6.523438 10.121094 6.53125 9.539062 C 6.554688 8.230469 6.539062 6.921875 6.539062 5.613281 C 6.539062 5.5625 6.539062 5.507812 6.539062 5.457031 C 6.539062 5.359375 6.585938 5.316406 6.683594 5.320312 C 6.695312 5.320312 6.710938 5.320312 6.722656 5.320312 C 7.273438 5.320312 7.171875 5.285156 7.171875 5.738281 C 7.179688 6.90625 7.175781 8.070312 7.175781 9.238281 C 7.175781 9.328125 7.167969 9.421875 7.175781 9.511719 C 7.203125 9.792969 7.3125 9.902344 7.597656 9.90625 C 7.925781 9.910156 8.253906 9.898438 8.578125 9.910156 C 8.742188 9.914062 8.785156 9.84375 8.832031 9.695312 C 9.117188 8.820312 9.730469 8.3125 10.628906 8.277344 C 11.433594 8.242188 12.199219 8.75 12.492188 9.609375 C 12.59375 9.902344 12.585938 9.90625 12.886719 9.90625 C 14.011719 9.90625 15.136719 9.90625 16.261719 9.90625 C 16.324219 9.90625 16.398438 9.921875 16.453125 9.898438 C 16.511719 9.875 16.554688 9.835938 16.574219 9.773438 C 16.59375 9.6875 16.582031 9.59375 16.582031 9.503906 C 16.582031 6.976562 16.582031 4.449219 16.582031 1.921875 C 16.582031 1.425781 16.410156 1.253906 15.890625 1.253906 C 14.464844 1.25 13.039062 1.25 11.613281 1.253906 L 7.6875 1.253906 C 7.597656 1.253906 7.503906 1.25 7.414062 1.253906 C 7.226562 1.269531 7.183594 1.300781 7.179688 1.488281 C 7.167969 1.761719 7.171875 2.035156 7.175781 2.304688 C 7.179688 2.433594 7.132812 2.492188 6.996094 2.492188 C 6.433594 2.488281 6.550781 2.53125 6.539062 2.078125 C 6.535156 1.871094 6.53125 1.660156 6.539062 1.453125 C 6.546875 1.300781 6.480469 1.25 6.332031 1.25 C 5.914062 1.257812 5.496094 1.257812 5.078125 1.253906 C 4.820312 1.25 4.820312 1.25 4.8125 0.996094 C 4.8125 0.945312 4.8125 0.894531 4.8125 0.84375 C 4.820312 0.578125 4.820312 0.574219 5.105469 0.574219 C 6.910156 0.574219 8.714844 0.574219 10.523438 0.574219 Z M 9.429688 10.257812 C 9.429688 10.308594 9.425781 10.359375 9.429688 10.414062 C 9.492188 11.121094 10.28125 11.863281 11.21875 11.425781 C 11.734375 11.183594 12.101562 10.492188 11.8125 9.730469 C 11.519531 8.960938 10.578125 8.71875 9.972656 9.164062 C 9.605469 9.433594 9.414062 9.792969 9.429688 10.257812 Z M 9.429688 10.257812 " fill-opacity="1" fill-rule="nonzero"/></g><g clip-path="url(#a8adeb98cf)"><path fill="#000000" d="M 19.933594 2.351562 C 20.296875 2.351562 20.664062 2.363281 21.03125 2.347656 C 21.496094 2.328125 21.875 2.507812 22.191406 2.816406 C 22.398438 3.027344 22.59375 3.253906 22.769531 3.496094 C 23.148438 4.003906 23.523438 4.519531 23.878906 5.042969 C 24.183594 5.488281 24.367188 5.984375 24.359375 6.535156 C 24.351562 6.988281 24.355469 7.441406 24.355469 7.894531 C 24.355469 8 24.351562 8.105469 24.503906 8.117188 C 24.621094 8.121094 24.65625 8.199219 24.65625 8.304688 C 24.65625 8.742188 24.679688 9.1875 24.648438 9.625 C 24.601562 10.191406 24.140625 10.574219 23.558594 10.582031 C 23.351562 10.585938 23.140625 10.589844 22.933594 10.582031 C 22.792969 10.578125 22.734375 10.625 22.699219 10.773438 C 22.570312 11.300781 22.269531 11.710938 21.789062 11.980469 C 20.722656 12.570312 19.441406 12.054688 19.035156 10.886719 C 18.929688 10.59375 18.941406 10.589844 18.644531 10.585938 C 18.382812 10.582031 18.121094 10.582031 17.859375 10.585938 C 17.722656 10.589844 17.671875 10.527344 17.683594 10.398438 C 17.6875 10.347656 17.683594 10.296875 17.683594 10.246094 C 17.683594 7.964844 17.6875 5.683594 17.675781 3.402344 C 17.675781 2.960938 17.855469 2.660156 18.234375 2.464844 C 18.363281 2.398438 18.496094 2.363281 18.636719 2.355469 C 19.070312 2.34375 19.5 2.351562 19.933594 2.351562 Z M 22.003906 3.640625 C 21.722656 3.195312 21.503906 3.035156 21.140625 3.03125 C 20.34375 3.023438 19.546875 3.023438 18.75 3.027344 C 18.453125 3.03125 18.347656 3.132812 18.320312 3.417969 C 18.3125 3.492188 18.316406 3.570312 18.316406 3.648438 C 18.316406 5.605469 18.316406 7.5625 18.316406 9.519531 C 18.316406 9.597656 18.320312 9.675781 18.316406 9.753906 C 18.316406 9.847656 18.359375 9.898438 18.453125 9.902344 C 18.519531 9.90625 18.585938 9.90625 18.652344 9.90625 C 18.9375 9.90625 18.9375 9.90625 19.027344 9.636719 C 19.136719 9.332031 19.273438 9.039062 19.523438 8.816406 C 20.054688 8.34375 20.65625 8.144531 21.363281 8.34375 C 22.085938 8.546875 22.5 9.039062 22.699219 9.730469 C 22.734375 9.855469 22.785156 9.90625 22.90625 9.90625 C 23.140625 9.902344 23.378906 9.910156 23.613281 9.902344 C 23.832031 9.894531 23.953125 9.78125 23.96875 9.570312 C 23.980469 9.359375 23.972656 9.15625 23.96875 8.949219 C 23.96875 8.902344 23.9375 8.816406 23.917969 8.816406 C 23.644531 8.789062 23.726562 8.582031 23.722656 8.433594 C 23.714844 8.199219 23.722656 7.964844 23.71875 7.734375 C 23.71875 7.539062 23.71875 7.34375 23.71875 7.148438 C 23.71875 7.007812 23.644531 6.933594 23.5 6.941406 C 23.40625 6.945312 23.316406 6.941406 23.222656 6.941406 C 22.335938 6.941406 21.445312 6.945312 20.554688 6.9375 C 20.042969 6.9375 19.597656 6.527344 19.578125 6.023438 C 19.5625 5.542969 19.5625 5.0625 19.578125 4.585938 C 19.59375 4.097656 20.027344 3.683594 20.519531 3.671875 C 20.910156 3.664062 21.300781 3.671875 21.695312 3.667969 C 21.792969 3.667969 21.890625 3.652344 22.003906 3.640625 Z M 22.054688 6.308594 C 22.515625 6.308594 22.972656 6.3125 23.429688 6.308594 C 23.660156 6.308594 23.699219 6.246094 23.617188 6.023438 C 23.597656 5.960938 23.566406 5.90625 23.539062 5.84375 C 23.324219 5.324219 22.929688 4.917969 22.628906 4.449219 C 22.550781 4.324219 22.421875 4.300781 22.289062 4.300781 C 21.730469 4.304688 21.167969 4.300781 20.613281 4.3125 C 20.375 4.320312 20.265625 4.441406 20.261719 4.683594 C 20.25 5.085938 20.25 5.488281 20.261719 5.890625 C 20.265625 6.207031 20.371094 6.304688 20.6875 6.308594 C 21.140625 6.3125 21.597656 6.308594 22.058594 6.308594 Z M 22.089844 10.238281 C 22.089844 10.199219 22.089844 10.160156 22.089844 10.121094 C 22.078125 9.628906 21.796875 9.28125 21.398438 9.066406 C 21 8.851562 20.574219 8.898438 20.175781 9.148438 C 19.527344 9.550781 19.507812 10.511719 19.816406 10.972656 C 20.011719 11.269531 20.261719 11.484375 20.621094 11.53125 C 21.460938 11.640625 22.097656 11.078125 22.089844 10.238281 Z M 22.089844 10.238281 " fill-opacity="1" fill-rule="nonzero"/></g><path fill="#000000" d="M 8.230469 3.4375 L 5.214844 3.4375 C 5.125 3.4375 5.03125 3.449219 4.941406 3.429688 C 4.894531 3.421875 4.847656 3.363281 4.816406 3.320312 C 4.800781 3.292969 4.8125 3.242188 4.8125 3.207031 C 4.8125 2.753906 4.78125 2.804688 5.207031 2.804688 C 7.230469 2.804688 9.253906 2.804688 11.277344 2.804688 C 11.355469 2.804688 11.433594 2.808594 11.511719 2.804688 C 11.636719 2.800781 11.703125 2.84375 11.703125 2.980469 C 11.695312 3.519531 11.753906 3.433594 11.289062 3.4375 C 10.269531 3.441406 9.25 3.4375 8.230469 3.4375 Z M 8.230469 3.4375 " fill-opacity="1" fill-rule="nonzero"/><path fill="#000000" d="M 6.027344 5.074219 C 5.257812 5.074219 4.484375 5.074219 3.714844 5.074219 C 3.410156 5.074219 3.410156 5.070312 3.410156 4.78125 C 3.410156 4.714844 3.410156 4.652344 3.410156 4.585938 C 3.410156 4.488281 3.457031 4.445312 3.550781 4.445312 C 3.617188 4.445312 3.683594 4.445312 3.746094 4.445312 C 5.265625 4.445312 6.785156 4.445312 8.300781 4.445312 C 8.378906 4.445312 8.460938 4.4375 8.535156 4.453125 C 8.574219 4.460938 8.632812 4.511719 8.632812 4.542969 C 8.632812 4.710938 8.621094 4.875 8.609375 5.039062 C 8.480469 5.050781 8.355469 5.074219 8.226562 5.074219 C 7.496094 5.078125 6.761719 5.074219 6.027344 5.074219 Z M 6.027344 5.074219 " fill-opacity="1" fill-rule="nonzero"/><path fill="#000000" d="M 11.171875 10.261719 C 11.167969 10.570312 10.976562 10.753906 10.660156 10.753906 C 10.332031 10.753906 10.136719 10.550781 10.148438 10.21875 C 10.160156 9.921875 10.382812 9.726562 10.683594 9.738281 C 10.992188 9.75 11.179688 9.949219 11.171875 10.261719 Z M 11.171875 10.261719 " fill-opacity="1" fill-rule="nonzero"/><path fill="#000000" d="M 20.84375 10.753906 C 20.527344 10.75 20.347656 10.558594 20.351562 10.234375 C 20.351562 9.925781 20.550781 9.75 20.863281 9.734375 C 21.15625 9.71875 21.40625 9.980469 21.378906 10.277344 C 21.347656 10.578125 21.164062 10.757812 20.84375 10.753906 Z M 20.84375 10.753906 " fill-opacity="1" fill-rule="nonzero"/><g clip-path="url(#cb003f0c7d)"><path fill="#000000" d="M 4.382812 0.929688 C 4.382812 1.027344 4.347656 1.113281 4.277344 1.179688 C 4.207031 1.25 4.121094 1.285156 4.023438 1.285156 C 3.921875 1.285156 3.839844 1.25 3.769531 1.179688 C 3.699219 1.113281 3.664062 1.027344 3.664062 0.929688 C 3.664062 0.832031 3.699219 0.746094 3.769531 0.675781 C 3.839844 0.605469 3.921875 0.574219 4.023438 0.574219 C 4.121094 0.574219 4.207031 0.605469 4.277344 0.675781 C 4.347656 0.746094 4.382812 0.832031 4.382812 0.929688 Z M 4.382812 0.929688 " fill-opacity="1" fill-rule="nonzero"/></g><g clip-path="url(#d271f641d2)"><path fill="#000000" d="M 2.988281 0.929688 C 2.988281 1.027344 2.953125 1.113281 2.882812 1.179688 C 2.8125 1.25 2.726562 1.285156 2.628906 1.285156 C 2.527344 1.285156 2.445312 1.25 2.375 1.179688 C 2.304688 1.113281 2.269531 1.027344 2.269531 0.929688 C 2.269531 0.832031 2.304688 0.746094 2.375 0.675781 C 2.445312 0.605469 2.527344 0.574219 2.628906 0.574219 C 2.726562 0.574219 2.8125 0.605469 2.882812 0.675781 C 2.953125 0.746094 2.988281 0.832031 2.988281 0.929688 Z M 2.988281 0.929688 " fill-opacity="1" fill-rule="nonzero"/></g><path fill="#000000" d="M 4.023438 3.121094 C 4.023438 3.222656 3.988281 3.304688 3.917969 3.375 C 3.847656 3.445312 3.761719 3.480469 3.664062 3.480469 C 3.5625 3.480469 3.480469 3.445312 3.410156 3.375 C 3.339844 3.304688 3.304688 3.222656 3.304688 3.121094 C 3.304688 3.023438 3.339844 2.941406 3.410156 2.871094 C 3.480469 2.800781 3.5625 2.765625 3.664062 2.765625 C 3.761719 2.765625 3.847656 2.800781 3.917969 2.871094 C 3.988281 2.941406 4.023438 3.023438 4.023438 3.121094 Z M 4.023438 3.121094 " fill-opacity="1" fill-rule="nonzero"/><path fill="#000000" d="M 2.628906 4.757812 C 2.628906 4.859375 2.59375 4.941406 2.523438 5.011719 C 2.453125 5.082031 2.367188 5.117188 2.269531 5.117188 C 2.167969 5.117188 2.082031 5.082031 2.011719 5.011719 C 1.941406 4.941406 1.90625 4.859375 1.90625 4.757812 C 1.90625 4.660156 1.941406 4.578125 2.011719 4.507812 C 2.082031 4.4375 2.167969 4.402344 2.269531 4.402344 C 2.367188 4.402344 2.453125 4.4375 2.523438 4.507812 C 2.59375 4.578125 2.628906 4.660156 2.628906 4.757812 Z M 2.628906 4.757812 " fill-opacity="1" fill-rule="nonzero"/><g clip-path="url(#91c5ac6db7)"><path fill="#000000" d="M 1.421875 4.757812 C 1.421875 4.859375 1.386719 4.941406 1.316406 5.011719 C 1.246094 5.082031 1.160156 5.117188 1.0625 5.117188 C 0.960938 5.117188 0.878906 5.082031 0.808594 5.011719 C 0.738281 4.941406 0.703125 4.859375 0.703125 4.757812 C 0.703125 4.660156 0.738281 4.578125 0.808594 4.507812 C 0.878906 4.4375 0.960938 4.402344 1.0625 4.402344 C 1.160156 4.402344 1.246094 4.4375 1.316406 4.507812 C 1.386719 4.578125 1.421875 4.660156 1.421875 4.757812 Z M 1.421875 4.757812 " fill-opacity="1" fill-rule="nonzero"/></g></g></g></g><g mask="url(#75d81d0a41)"><g transform="matrix(1, 0, 0, 1, 39, 2)"><g clip-path="url(#e779bd0fcc)"><g clip-path="url(#9f8ec5fbca)"><path fill="#000000" d="M 11.296875 11.183594 C 11.441406 11.183594 11.5625 11.304688 11.5625 11.453125 C 11.5625 11.597656 11.441406 11.71875 11.296875 11.71875 L 1.445312 11.71875 C 1.160156 11.71875 0.898438 11.601562 0.710938 11.414062 L 0.710938 11.410156 C 0.519531 11.222656 0.402344 10.960938 0.402344 10.675781 L 0.402344 1.972656 C 0.402344 1.6875 0.519531 1.425781 0.710938 1.238281 C 0.898438 1.046875 1.160156 0.929688 1.445312 0.929688 L 14.628906 0.929688 C 14.914062 0.929688 15.171875 1.046875 15.363281 1.238281 C 15.550781 1.425781 15.667969 1.6875 15.667969 1.972656 L 15.667969 10.675781 C 15.667969 10.824219 15.550781 10.941406 15.402344 10.941406 C 15.257812 10.941406 15.136719 10.824219 15.136719 10.675781 L 15.136719 1.972656 C 15.136719 1.832031 15.078125 1.707031 14.988281 1.613281 C 14.894531 1.523438 14.769531 1.464844 14.628906 1.464844 L 1.445312 1.464844 C 1.304688 1.464844 1.175781 1.523438 1.085938 1.613281 C 0.992188 1.707031 0.9375 1.835938 0.9375 1.972656 L 0.9375 10.675781 C 0.9375 10.816406 0.992188 10.945312 1.085938 11.035156 C 1.175781 11.128906 1.304688 11.183594 1.445312 11.183594 Z M 11.296875 11.183594 " fill-opacity="1" fill-rule="nonzero"/></g><path fill="#000000" d="M 2.816406 5.542969 L 6.132812 5.542969 L 6.132812 3.300781 L 2.816406 3.300781 Z M 6.191406 6.078125 L 2.761719 6.078125 C 2.628906 6.078125 2.511719 6.023438 2.425781 5.9375 C 2.339844 5.851562 2.285156 5.730469 2.285156 5.601562 L 2.285156 3.246094 C 2.285156 3.113281 2.339844 2.996094 2.425781 2.910156 C 2.511719 2.824219 2.628906 2.769531 2.761719 2.769531 L 6.191406 2.769531 C 6.3125 2.769531 6.421875 2.816406 6.503906 2.890625 L 6.527344 2.910156 C 6.613281 2.996094 6.667969 3.113281 6.667969 3.246094 L 6.667969 5.601562 C 6.667969 5.730469 6.613281 5.851562 6.527344 5.9375 C 6.441406 6.023438 6.320312 6.078125 6.191406 6.078125 Z M 6.191406 6.078125 " fill-opacity="1" fill-rule="nonzero"/><path fill="#000000" d="M 3.632812 3.035156 C 3.632812 2.890625 3.753906 2.769531 3.898438 2.769531 C 4.046875 2.769531 4.167969 2.890625 4.167969 3.035156 L 4.167969 5.8125 C 4.167969 5.957031 4.046875 6.078125 3.898438 6.078125 C 3.753906 6.078125 3.632812 5.957031 3.632812 5.8125 Z M 3.632812 3.035156 " fill-opacity="1" fill-rule="nonzero"/><path fill="#000000" d="M 3.898438 4.691406 C 3.753906 4.691406 3.632812 4.570312 3.632812 4.421875 C 3.632812 4.277344 3.753906 4.15625 3.898438 4.15625 L 6.402344 4.15625 C 6.546875 4.15625 6.667969 4.277344 6.667969 4.421875 C 6.667969 4.570312 6.546875 4.691406 6.402344 4.691406 Z M 3.898438 4.691406 " fill-opacity="1" fill-rule="nonzero"/><path fill="#000000" d="M 10.480469 2.839844 C 10.695312 2.839844 10.902344 2.882812 11.09375 2.960938 C 11.285156 3.042969 11.460938 3.164062 11.609375 3.3125 C 11.710938 3.417969 11.710938 3.582031 11.609375 3.6875 C 11.511719 3.785156 11.4375 3.898438 11.382812 4.023438 C 11.335938 4.144531 11.308594 4.28125 11.308594 4.421875 C 11.308594 4.566406 11.335938 4.699219 11.382812 4.820312 L 11.390625 4.835938 C 11.441406 4.957031 11.515625 5.066406 11.609375 5.160156 C 11.710938 5.265625 11.710938 5.429688 11.609375 5.535156 C 11.460938 5.683594 11.285156 5.804688 11.09375 5.886719 L 11.078125 5.890625 C 10.894531 5.964844 10.691406 6.007812 10.480469 6.007812 C 10.042969 6.007812 9.648438 5.832031 9.363281 5.542969 C 9.078125 5.257812 8.898438 4.859375 8.898438 4.421875 C 8.898438 3.988281 9.078125 3.589844 9.363281 3.304688 C 9.648438 3.015625 10.042969 2.839844 10.480469 2.839844 Z M 10.886719 3.453125 C 10.761719 3.402344 10.625 3.371094 10.480469 3.371094 C 10.191406 3.371094 9.929688 3.488281 9.738281 3.679688 C 9.546875 3.871094 9.429688 4.132812 9.429688 4.421875 C 9.429688 4.714844 9.546875 4.976562 9.738281 5.167969 C 9.929688 5.359375 10.191406 5.476562 10.480469 5.476562 C 10.621094 5.476562 10.753906 5.449219 10.875 5.398438 L 10.886719 5.394531 C 10.941406 5.371094 10.996094 5.34375 11.046875 5.308594 C 10.988281 5.226562 10.941406 5.132812 10.898438 5.039062 L 10.894531 5.023438 C 10.816406 4.835938 10.777344 4.632812 10.777344 4.421875 C 10.777344 4.214844 10.816406 4.011719 10.894531 3.824219 C 10.933594 3.722656 10.988281 3.625 11.046875 3.539062 C 10.996094 3.503906 10.941406 3.476562 10.886719 3.453125 Z M 10.886719 3.453125 " fill-opacity="1" fill-rule="nonzero"/><path fill="#000000" d="M 12.359375 2.839844 C 12.792969 2.839844 13.191406 3.015625 13.476562 3.304688 C 13.761719 3.589844 13.9375 3.984375 13.9375 4.421875 C 13.9375 4.859375 13.761719 5.257812 13.476562 5.542969 L 13.472656 5.542969 C 13.1875 5.832031 12.792969 6.007812 12.355469 6.007812 C 11.921875 6.007812 11.523438 5.832031 11.238281 5.542969 C 10.953125 5.257812 10.773438 4.863281 10.773438 4.425781 C 10.773438 3.988281 10.953125 3.589844 11.238281 3.304688 C 11.527344 3.015625 11.921875 2.839844 12.359375 2.839844 Z M 13.097656 3.679688 C 12.910156 3.488281 12.648438 3.371094 12.355469 3.371094 C 12.066406 3.371094 11.804688 3.488281 11.613281 3.679688 C 11.425781 3.871094 11.308594 4.132812 11.308594 4.421875 C 11.308594 4.714844 11.425781 4.976562 11.613281 5.167969 C 11.804688 5.359375 12.066406 5.476562 12.355469 5.476562 C 12.648438 5.476562 12.910156 5.359375 13.097656 5.167969 L 13.101562 5.167969 C 13.289062 4.976562 13.40625 4.714844 13.40625 4.421875 C 13.40625 4.132812 13.289062 3.871094 13.097656 3.679688 Z M 13.097656 3.679688 " fill-opacity="1" fill-rule="nonzero"/><path fill="#000000" d="M 2.476562 9.691406 C 2.328125 9.691406 2.210938 9.574219 2.210938 9.425781 C 2.210938 9.277344 2.328125 9.160156 2.476562 9.160156 L 7.546875 9.160156 C 7.695312 9.160156 7.8125 9.277344 7.8125 9.425781 C 7.8125 9.574219 7.695312 9.691406 7.546875 9.691406 Z M 2.476562 9.691406 " fill-opacity="1" fill-rule="nonzero"/><path fill="#000000" d="M 10.636719 9.160156 C 10.78125 9.160156 10.902344 9.277344 10.902344 9.425781 C 10.902344 9.574219 10.78125 9.691406 10.636719 9.691406 L 8.679688 9.691406 C 8.535156 9.691406 8.414062 9.574219 8.414062 9.425781 C 8.414062 9.277344 8.535156 9.160156 8.679688 9.160156 Z M 10.636719 9.160156 " fill-opacity="1" fill-rule="nonzero"/><path fill="#000000" d="M 2.550781 8.464844 C 2.40625 8.464844 2.285156 8.347656 2.285156 8.199219 C 2.285156 8.050781 2.40625 7.933594 2.550781 7.933594 L 5.460938 7.933594 C 5.605469 7.933594 5.726562 8.050781 5.726562 8.199219 C 5.726562 8.347656 5.605469 8.464844 5.460938 8.464844 Z M 2.550781 8.464844 " fill-opacity="1" fill-rule="nonzero"/><path fill="#000000" d="M 6.660156 8.464844 C 6.511719 8.464844 6.390625 8.347656 6.390625 8.199219 C 6.390625 8.050781 6.511719 7.933594 6.660156 7.933594 L 9.566406 7.933594 C 9.714844 7.933594 9.832031 8.050781 9.832031 8.199219 C 9.832031 8.347656 9.714844 8.464844 9.566406 8.464844 Z M 6.660156 8.464844 " fill-opacity="1" fill-rule="nonzero"/><path fill="#000000" d="M 10.765625 8.464844 C 10.617188 8.464844 10.5 8.347656 10.5 8.199219 C 10.5 8.050781 10.617188 7.933594 10.765625 7.933594 L 13.671875 7.933594 C 13.820312 7.933594 13.9375 8.050781 13.9375 8.199219 C 13.9375 8.347656 13.820312 8.464844 13.671875 8.464844 Z M 10.765625 8.464844 " fill-opacity="1" fill-rule="nonzero"/><path fill="#000000" d="M 15.382812 11.890625 C 15.484375 11.785156 15.648438 11.78125 15.753906 11.882812 C 15.859375 11.984375 15.863281 12.152344 15.761719 12.257812 L 13.316406 14.789062 C 13.214844 14.894531 13.046875 14.898438 12.941406 14.796875 L 12.21875 14.097656 C 12.113281 13.992188 12.113281 13.824219 12.214844 13.71875 C 12.316406 13.613281 12.484375 13.613281 12.589844 13.714844 L 13.121094 14.230469 Z M 15.382812 11.890625 " fill-opacity="1" fill-rule="nonzero"/><g clip-path="url(#1c6a0eda37)"><path fill="#000000" d="M 13.777344 9.710938 L 13.78125 9.707031 C 13.804688 9.683594 13.828125 9.667969 13.855469 9.65625 L 13.863281 9.652344 C 13.898438 9.636719 13.933594 9.632812 13.96875 9.632812 C 14 9.632812 14.035156 9.636719 14.070312 9.652344 L 14.078125 9.65625 C 14.105469 9.667969 14.128906 9.683594 14.152344 9.707031 L 14.175781 9.734375 C 14.34375 9.941406 14.71875 10.160156 15.148438 10.34375 C 15.664062 10.5625 16.246094 10.726562 16.648438 10.773438 C 16.789062 10.777344 16.902344 10.894531 16.902344 11.039062 L 16.902344 13.980469 C 16.851562 15.921875 15.574219 16.261719 14.332031 16.589844 L 14.039062 16.667969 C 13.996094 16.679688 13.945312 16.679688 13.898438 16.667969 L 13.601562 16.589844 C 12.367188 16.261719 11.097656 15.925781 11.035156 14.007812 L 11.03125 13.976562 L 11.03125 11.039062 C 11.03125 10.90625 11.132812 10.789062 11.269531 10.773438 C 11.675781 10.730469 12.261719 10.566406 12.789062 10.34375 C 13.214844 10.160156 13.589844 9.941406 13.757812 9.734375 Z M 13.96875 10.269531 C 13.722656 10.476562 13.371094 10.671875 12.996094 10.832031 C 12.519531 11.035156 11.988281 11.195312 11.5625 11.269531 L 11.5625 13.988281 C 11.613281 15.511719 12.691406 15.796875 13.738281 16.074219 L 13.96875 16.136719 L 14.195312 16.074219 C 15.246094 15.796875 16.328125 15.507812 16.371094 13.976562 L 16.371094 11.269531 C 15.945312 11.195312 15.414062 11.035156 14.941406 10.832031 C 14.5625 10.671875 14.214844 10.476562 13.96875 10.269531 Z M 13.96875 10.269531 " fill-opacity="1" fill-rule="nonzero"/></g><g clip-path="url(#4b76233d0a)"><path fill="#000000" d="M 15.402344 2.992188 C 15.257812 2.992188 15.136719 2.871094 15.136719 2.726562 C 15.136719 2.578125 15.257812 2.460938 15.402344 2.460938 L 15.863281 2.460938 C 16.148438 2.460938 16.410156 2.578125 16.597656 2.765625 L 16.613281 2.78125 C 16.792969 2.96875 16.902344 3.222656 16.902344 3.503906 L 16.902344 11.21875 C 16.902344 11.367188 16.785156 11.484375 16.636719 11.484375 C 16.492188 11.484375 16.371094 11.367188 16.371094 11.21875 L 16.371094 3.5 C 16.371094 3.367188 16.320312 3.242188 16.234375 3.152344 L 16.222656 3.140625 C 16.128906 3.050781 16.003906 2.992188 15.863281 2.992188 Z M 11.296875 12.710938 C 11.441406 12.710938 11.5625 12.832031 11.5625 12.980469 C 11.5625 13.125 11.441406 13.246094 11.296875 13.246094 L 2.679688 13.246094 C 2.394531 13.246094 2.132812 13.128906 1.945312 12.941406 L 1.929688 12.921875 C 1.75 12.734375 1.636719 12.480469 1.636719 12.203125 L 1.636719 11.496094 C 1.636719 11.351562 1.757812 11.230469 1.902344 11.230469 C 2.050781 11.230469 2.171875 11.351562 2.171875 11.496094 L 2.171875 12.203125 C 2.171875 12.335938 2.222656 12.460938 2.308594 12.550781 L 2.320312 12.5625 C 2.414062 12.65625 2.539062 12.710938 2.679688 12.710938 Z M 11.296875 12.710938 " fill-opacity="1" fill-rule="nonzero"/></g></g></g></g><g mask="url(#9be676274f)"><g transform="matrix(1, 0, 0, 1, 73, 51)"><g clip-path="url(#9c8342155c)"><g clip-path="url(#9441485a53)"><path fill="#000000" d="M 15.523438 10.3125 C 15.914062 8.214844 16.371094 6.132812 16.765625 4.039062 C 16.882812 3.40625 16.527344 2.601562 15.832031 2.5 C 15.527344 2.414062 15.167969 2.742188 15.292969 3.050781 C 15.332031 3.3125 15.632812 3.339844 15.832031 3.40625 C 15.894531 3.574219 16.007812 3.75 15.933594 3.9375 C 15.890625 4.164062 15.84375 4.386719 15.800781 4.613281 L 5.589844 4.613281 C 5.390625 4.613281 5.226562 4.773438 5.226562 4.976562 C 5.226562 5.175781 5.390625 5.339844 5.589844 5.339844 L 15.65625 5.339844 C 15.382812 6.703125 15.105469 8.0625 14.835938 9.429688 C 14.777344 9.710938 14.734375 10.003906 14.613281 10.273438 C 14.398438 10.355469 14.160156 10.3125 13.933594 10.324219 C 11.28125 10.316406 8.625 10.324219 5.972656 10.320312 C 5.296875 7.460938 4.632812 4.597656 3.957031 1.738281 C 3.871094 1.199219 3.40625 0.703125 2.832031 0.722656 C 2.140625 0.726562 1.449219 0.695312 0.761719 0.742188 C 0.382812 0.871094 0.382812 1.429688 0.757812 1.570312 C 1.480469 1.636719 2.214844 1.550781 2.941406 1.613281 C 3.113281 1.695312 3.082031 1.9375 3.148438 2.09375 C 3.941406 5.492188 4.742188 8.890625 5.550781 12.289062 C 5.652344 12.84375 6.183594 13.285156 6.761719 13.230469 C 9.59375 13.226562 12.429688 13.242188 15.261719 13.222656 C 15.804688 13.242188 15.808594 12.351562 15.265625 12.363281 C 12.722656 12.347656 10.179688 12.359375 7.636719 12.359375 C 7.257812 12.347656 6.867188 12.394531 6.492188 12.316406 C 6.324219 11.964844 6.277344 11.566406 6.175781 11.195312 C 8.910156 11.195312 11.640625 11.195312 14.375 11.195312 C 14.90625 11.238281 15.445312 10.839844 15.523438 10.3125 Z M 15.523438 10.3125 " fill-opacity="1" fill-rule="nonzero"/></g><g clip-path="url(#d804499701)"><path fill="#000000" d="M 7.074219 13.550781 C 6.574219 13.648438 6.15625 14.0625 6.0625 14.5625 C 5.898438 15.246094 6.390625 15.996094 7.089844 16.113281 C 7.8125 16.277344 8.589844 15.722656 8.652344 14.984375 C 8.789062 14.132812 7.917969 13.339844 7.074219 13.550781 Z M 7.707031 15.070312 C 7.566406 15.300781 7.210938 15.34375 7.035156 15.128906 C 6.792969 14.917969 6.925781 14.488281 7.226562 14.414062 C 7.585938 14.277344 7.964844 14.769531 7.707031 15.070312 Z M 7.707031 15.070312 " fill-opacity="1" fill-rule="nonzero"/></g><g clip-path="url(#a7f9770589)"><path fill="#000000" d="M 13.523438 13.550781 C 12.566406 13.695312 12.128906 14.984375 12.785156 15.683594 C 13.378906 16.433594 14.722656 16.203125 15.015625 15.289062 C 15.402344 14.378906 14.488281 13.308594 13.523438 13.550781 Z M 14.023438 15.191406 C 13.574219 15.539062 13.050781 14.746094 13.542969 14.46875 C 13.992188 14.121094 14.519531 14.914062 14.023438 15.191406 Z M 14.023438 15.191406 " fill-opacity="1" fill-rule="nonzero"/></g></g></g></g><g mask="url(#d41d05553a)"><g transform="matrix(1, 0, 0, 1, 71, 23)"><g clip-path="url(#d606b3f910)"><g clip-path="url(#2ffba4a5ef)"><path fill="#000000" d="M 10.785156 14.425781 C 10.769531 14.425781 10.75 14.421875 10.730469 14.414062 L 3.910156 11.945312 C 3.847656 11.921875 3.808594 11.867188 3.804688 11.800781 L 3.675781 6.074219 C 3.675781 5.988281 3.742188 5.917969 3.832031 5.914062 C 3.917969 5.910156 3.988281 5.980469 3.992188 6.066406 L 4.117188 11.6875 L 10.628906 14.046875 L 10.675781 7.980469 C 10.679688 7.894531 10.75 7.828125 10.835938 7.828125 C 10.921875 7.828125 10.992188 7.898438 10.992188 7.984375 L 10.945312 14.269531 C 10.945312 14.320312 10.917969 14.367188 10.875 14.398438 C 10.851562 14.414062 10.816406 14.425781 10.785156 14.425781 " fill-opacity="1" fill-rule="evenodd"/></g><g clip-path="url(#283fd2aacb)"><path fill="#000000" d="M 10.785156 14.425781 C 10.761719 14.425781 10.734375 14.417969 10.710938 14.40625 C 10.660156 14.378906 10.628906 14.324219 10.628906 14.269531 L 10.675781 7.980469 C 10.679688 7.894531 10.75 7.828125 10.835938 7.828125 C 10.921875 7.828125 10.992188 7.898438 10.992188 7.984375 L 10.945312 13.980469 L 15.535156 11.074219 L 15.734375 5.609375 C 15.738281 5.523438 15.8125 5.453125 15.898438 5.457031 C 15.984375 5.460938 16.054688 5.535156 16.050781 5.621094 L 15.847656 11.167969 C 15.847656 11.21875 15.820312 11.265625 15.777344 11.292969 L 10.871094 14.402344 C 10.84375 14.417969 10.816406 14.425781 10.785156 14.425781 " fill-opacity="1" fill-rule="evenodd"/></g><g clip-path="url(#a52547f65f)"><path fill="#000000" d="M 3.898438 5.925781 L 10.019531 7.597656 L 8.300781 6.386719 L 2.019531 4.816406 Z M 10.835938 8.140625 C 10.820312 8.140625 10.808594 8.136719 10.792969 8.132812 L 3.792969 6.222656 C 3.777344 6.21875 3.765625 6.210938 3.753906 6.203125 L 0.933594 4.539062 C 0.867188 4.5 0.839844 4.417969 0.867188 4.34375 C 0.898438 4.273438 0.976562 4.234375 1.050781 4.253906 L 8.40625 6.089844 C 8.425781 6.09375 8.445312 6.105469 8.460938 6.117188 L 10.925781 7.855469 C 10.988281 7.898438 11.011719 7.980469 10.976562 8.050781 C 10.949219 8.105469 10.894531 8.140625 10.835938 8.140625 " fill-opacity="1" fill-rule="evenodd"/></g><g clip-path="url(#888e0779bc)"><path fill="#000000" d="M 13.878906 5.214844 L 11.601562 7.453125 L 15.804688 5.484375 L 17.921875 3.535156 Z M 10.835938 8.140625 C 10.785156 8.140625 10.738281 8.117188 10.707031 8.074219 C 10.660156 8.011719 10.667969 7.925781 10.722656 7.871094 L 13.679688 4.972656 C 13.695312 4.957031 13.710938 4.945312 13.730469 4.9375 L 18.617188 2.90625 C 18.6875 2.878906 18.769531 2.902344 18.808594 2.964844 C 18.851562 3.03125 18.839844 3.113281 18.785156 3.164062 L 16 5.726562 C 15.988281 5.738281 15.972656 5.746094 15.960938 5.753906 L 10.902344 8.125 C 10.882812 8.132812 10.859375 8.140625 10.835938 8.140625 " fill-opacity="1" fill-rule="evenodd"/></g><g clip-path="url(#f9a95b9eee)"><path fill="#000000" d="M 3.074219 4.757812 L 5.246094 5.300781 L 9 3.988281 L 7.105469 1.273438 L 1.816406 2.664062 Z M 5.253906 5.621094 C 5.242188 5.621094 5.226562 5.617188 5.214844 5.617188 L 2.933594 5.046875 C 2.890625 5.035156 2.855469 5.007812 2.835938 4.972656 L 1.441406 2.648438 C 1.414062 2.605469 1.410156 2.554688 1.429688 2.507812 C 1.449219 2.464844 1.488281 2.429688 1.535156 2.417969 L 7.128906 0.941406 C 7.195312 0.925781 7.261719 0.949219 7.300781 1.003906 L 9.375 3.976562 C 9.40625 4.019531 9.414062 4.070312 9.398438 4.113281 C 9.382812 4.160156 9.347656 4.199219 9.300781 4.214844 L 5.304688 5.609375 C 5.289062 5.617188 5.273438 5.621094 5.253906 5.621094 " fill-opacity="1" fill-rule="evenodd"/></g><path fill="#000000" d="M 9.515625 3.960938 L 13.910156 4.863281 L 16.824219 3.652344 L 17.421875 2.65625 L 11.222656 1.578125 Z M 13.925781 5.183594 C 13.914062 5.183594 13.902344 5.183594 13.894531 5.179688 L 9.214844 4.21875 C 9.164062 4.207031 9.121094 4.171875 9.101562 4.125 C 9.082031 4.074219 9.085938 4.019531 9.117188 3.976562 L 11.023438 1.316406 C 11.058594 1.269531 11.121094 1.242188 11.179688 1.253906 L 17.703125 2.390625 C 17.753906 2.398438 17.796875 2.433594 17.820312 2.480469 C 17.839844 2.523438 17.835938 2.578125 17.8125 2.625 L 17.066406 3.855469 C 17.050781 3.886719 17.023438 3.90625 16.992188 3.921875 L 13.984375 5.171875 C 13.964844 5.179688 13.945312 5.183594 13.925781 5.183594 " fill-opacity="1" fill-rule="evenodd"/><path fill="#000000" d="M 4.878906 10.925781 L 6.585938 11.519531 L 6.617188 9.917969 L 4.890625 9.445312 Z M 6.742188 11.894531 C 6.722656 11.894531 6.703125 11.890625 6.6875 11.886719 L 4.667969 11.183594 C 4.605469 11.160156 4.5625 11.101562 4.5625 11.035156 L 4.578125 9.242188 C 4.578125 9.191406 4.601562 9.144531 4.640625 9.117188 C 4.679688 9.085938 4.730469 9.078125 4.777344 9.089844 L 6.820312 9.648438 C 6.890625 9.667969 6.9375 9.730469 6.9375 9.804688 L 6.898438 11.742188 C 6.898438 11.792969 6.871094 11.839844 6.832031 11.867188 C 6.804688 11.886719 6.773438 11.894531 6.742188 11.894531 " fill-opacity="1" fill-rule="evenodd"/></g></g></g></svg>